Rubik-Light.ufo
<glyph name="exclam" format="1">
  <advance width="225"/>
  <unicode hex="0021"/>
  <outline>
    <contour>
      <point x="104" y="700" type="line" name="hr00" smooth="yes"/>
      <point x="91" y="700"/>
      <point x="82" y="691"/>
      <point x="82" y="678" type="curve" smooth="yes"/>
      <point x="82" y="165" type="line" smooth="yes"/>
      <point x="82" y="152"/>
      <point x="91" y="143"/>
      <point x="104" y="143" type="curve" smooth="yes"/>
      <point x="121" y="143" type="line" smooth="yes"/>
      <point x="134" y="143"/>
      <point x="143" y="152"/>
      <point x="143" y="165" type="curve" smooth="yes"/>
      <point x="143" y="678" type="line" smooth="yes"/>
      <point x="143" y="691"/>
      <point x="134" y="700"/>
      <point x="121" y="700" type="curve" smooth="yes"/>
    </contour>
    <contour>
      <point x="154" y="60" type="line" smooth="yes"/>
      <point x="154" y="73"/>
      <point x="144" y="83"/>
      <point x="131" y="83" type="curve" smooth="yes"/>
      <point x="93" y="83" type="line" smooth="yes"/>
      <point x="80" y="83"/>
      <point x="71" y="73"/>
      <point x="71" y="60" type="curve" smooth="yes"/>
      <point x="71" y="22" type="line" smooth="yes"/>
      <point x="71" y="9"/>
      <point x="80" y="0"/>
      <point x="93" y="0" type="curve" smooth="yes"/>
      <point x="131" y="0" type="line" smooth="yes"/>
      <point x="144" y="0"/>
      <point x="154" y="9"/>
      <point x="154" y="22" type="curve" smooth="yes"/>
    </contour>
  </outline>
</glyph>
<glyph name="ampersand" format="1">
  <advance width="674"/>
  <unicode hex="0026"/>
  <outline>
    <contour>
      <point x="612" y="344" type="curve" smooth="yes"/>
      <point x="612" y="357"/>
      <point x="603" y="366"/>
      <point x="590" y="366" type="curve" smooth="yes"/>
      <point x="571" y="366" type="line" smooth="yes"/>
      <point x="558" y="366"/>
      <point x="550" y="357"/>
      <point x="549" y="344" type="curve" smooth="yes"/>
      <point x="541" y="274"/>
      <point x="521" y="221"/>
      <point x="494" y="176" type="curve"/>
      <point x="411" y="257"/>
      <point x="303" y="363"/>
      <point x="303" y="363" type="curve"/>
      <point x="383" y="408"/>
      <point x="460" y="457"/>
      <point x="460" y="550" type="curve" smooth="yes"/>
      <point x="460" y="642"/>
      <point x="387" y="710"/>
      <point x="286" y="710" type="curve" smooth="yes"/>
      <point x="185" y="710"/>
      <point x="112" y="637"/>
      <point x="112" y="550" type="curve" smooth="yes"/>
      <point x="112" y="491"/>
      <point x="137" y="447"/>
      <point x="205" y="375" type="curve"/>
      <point x="130" y="331"/>
      <point x="61" y="278"/>
      <point x="61" y="184" type="curve" name="hr01" smooth="yes"/>
      <point x="61" y="72"/>
      <point x="152" y="-10"/>
      <point x="281" y="-10" type="curve" smooth="yes"/>
      <point x="379" y="-10"/>
      <point x="452" y="30"/>
      <point x="503" y="84" type="curve"/>
      <point x="577" y="10" type="line" smooth="yes"/>
      <point x="583" y="4"/>
      <point x="591" y="0"/>
      <point x="605" y="0" type="curve" name="hr02" smooth="yes"/>
      <point x="627" y="0" type="line" smooth="yes"/>
      <point x="640" y="0"/>
      <point x="647" y="7"/>
      <point x="647" y="19" type="curve" smooth="yes"/>
      <point x="647" y="24"/>
      <point x="643" y="30"/>
      <point x="638" y="35" type="curve" smooth="yes"/>
      <point x="540" y="131" type="line"/>
      <point x="592" y="208"/>
      <point x="610" y="283"/>
    </contour>
    <contour>
      <point x="247" y="332" type="curve"/>
      <point x="247" y="332"/>
      <point x="367" y="217"/>
      <point x="457" y="129" type="curve"/>
      <point x="405" y="75"/>
      <point x="341" y="50"/>
      <point x="281" y="50" type="curve" name="hr03" smooth="yes"/>
      <point x="199" y="50"/>
      <point x="124" y="97"/>
      <point x="124" y="184" type="curve" smooth="yes"/>
      <point x="124" y="253"/>
      <point x="180" y="294"/>
    </contour>
    <contour>
      <point x="397" y="550" type="curve" smooth="yes"/>
      <point x="397" y="485"/>
      <point x="332" y="447"/>
      <point x="260" y="407" type="curve"/>
      <point x="192" y="478"/>
      <point x="175" y="510"/>
      <point x="175" y="550" type="curve" name="hr04" smooth="yes"/>
      <point x="175" y="612"/>
      <point x="227" y="650"/>
      <point x="286" y="650" type="curve" smooth="yes"/>
      <point x="348" y="650"/>
      <point x="397" y="611"/>
    </contour>
  </outline>
</glyph>
<glyph name="parenleft" format="1">
  <advance width="319"/>
  <unicode hex="0028"/>
  <outline>
    <contour>
      <point x="272" y="-159" type="curve" smooth="yes"/>
      <point x="284" y="-159"/>
      <point x="294" y="-149"/>
      <point x="294" y="-137" type="curve" smooth="yes"/>
      <point x="294" y="-123" type="line" smooth="yes"/>
      <point x="294" y="-111"/>
      <point x="284" y="-101"/>
      <point x="275" y="-101" type="curve" smooth="yes"/>
      <point x="163" y="-101"/>
      <point x="123" y="-8"/>
      <point x="123" y="309" type="curve" name="hr01" smooth="yes"/>
      <point x="123" y="626"/>
      <point x="163" y="718"/>
      <point x="275" y="718" type="curve" smooth="yes"/>
      <point x="284" y="718"/>
      <point x="294" y="728"/>
      <point x="294" y="740" type="curve" name="hr02" smooth="yes"/>
      <point x="294" y="754" type="line" smooth="yes"/>
      <point x="294" y="766"/>
      <point x="284" y="776"/>
      <point x="272" y="776" type="curve" smooth="yes"/>
      <point x="103" y="776"/>
      <point x="64" y="632"/>
      <point x="64" y="309" type="curve" smooth="yes"/>
      <point x="64" y="-14"/>
      <point x="103" y="-159"/>
    </contour>
  </outline>
</glyph>
<glyph name="two" format="1">
  <advance width="560"/>
  <unicode hex="0032"/>
  <outline>
    <contour>
      <point x="83" y="483" type="curve" name="hr00"/>
      <point x="103" y="483" type="line" smooth="yes"/>
      <point x="111" y="483"/>
      <point x="124" y="490"/>
      <point x="126" y="506" type="curve" smooth="yes"/>
      <point x="137" y="592"/>
      <point x="190" y="650"/>
      <point x="281" y="650" type="curve" smooth="yes"/>
      <point x="376" y="650"/>
      <point x="429" y="596"/>
      <point x="429" y="507" type="curve" smooth="yes"/>
      <point x="429" y="445"/>
      <point x="411" y="407"/>
      <point x="336" y="338" type="curve" smooth="yes"/>
      <point x="77" y="79" type="line" smooth="yes"/>
      <point x="58" y="62"/>
      <point x="52" y="50"/>
      <point x="52" y="37" type="curve" smooth="yes"/>
      <point x="52" y="22" type="line" smooth="yes"/>
      <point x="52" y="9"/>
      <point x="61" y="0"/>
      <point x="74" y="0" type="curve" smooth="yes"/>
      <point x="484" y="0" type="line" smooth="yes"/>
      <point x="498" y="0"/>
      <point x="507" y="9"/>
      <point x="507" y="22" type="curve" smooth="yes"/>
      <point x="507" y="37" type="line" smooth="yes"/>
      <point x="507" y="51"/>
      <point x="498" y="60"/>
      <point x="484" y="60" type="curve" smooth="yes"/>
      <point x="149" y="60" type="line"/>
      <point x="383" y="298" type="line" smooth="yes"/>
      <point x="456" y="366"/>
      <point x="492" y="425"/>
      <point x="492" y="507" type="curve" smooth="yes"/>
      <point x="492" y="612"/>
      <point x="433" y="710"/>
      <point x="281" y="710" type="curve" smooth="yes"/>
      <point x="129" y="710"/>
      <point x="65" y="593"/>
      <point x="62" y="502" type="curve" smooth="yes"/>
      <point x="62" y="491"/>
      <point x="70" y="483"/>
    </contour>
  </outline>
</glyph>
<glyph name="three" format="1">
  <advance width="576"/>
  <unicode hex="0033"/>
  <outline>
    <contour>
      <point x="99" y="700" type="line" name="hr00" smooth="yes"/>
      <point x="86" y="700"/>
      <point x="77" y="691"/>
      <point x="77" y="677" type="curve" smooth="yes"/>
      <point x="77" y="662" type="line" smooth="yes"/>
      <point x="77" y="649"/>
      <point x="86" y="640"/>
      <point x="99" y="640" type="curve" smooth="yes"/>
      <point x="401" y="640" type="line"/>
      <point x="195" y="397" type="line"/>
      <point x="190" y="390"/>
      <point x="186" y="383"/>
      <point x="186" y="373" type="curve" smooth="yes"/>
      <point x="186" y="358" type="line" smooth="yes"/>
      <point x="186" y="345"/>
      <point x="195" y="336"/>
      <point x="208" y="336" type="curve" smooth="yes"/>
      <point x="296" y="336" type="line" smooth="yes"/>
      <point x="399" y="336"/>
      <point x="462" y="297"/>
      <point x="462" y="198" type="curve" smooth="yes"/>
      <point x="462" y="99"/>
      <point x="389" y="50"/>
      <point x="286" y="50" type="curve" smooth="yes"/>
      <point x="215" y="50"/>
      <point x="130" y="70"/>
      <point x="109" y="157" type="curve" smooth="yes"/>
      <point x="104" y="177"/>
      <point x="93" y="180"/>
      <point x="82" y="180" type="curve" smooth="yes"/>
      <point x="68" y="180" type="line" smooth="yes"/>
      <point x="56" y="180"/>
      <point x="47" y="173"/>
      <point x="47" y="161" type="curve" smooth="yes"/>
      <point x="50" y="74"/>
      <point x="136" y="-10"/>
      <point x="286" y="-10" type="curve" smooth="yes"/>
      <point x="423" y="-10"/>
      <point x="525" y="66"/>
      <point x="525" y="198" type="curve" smooth="yes"/>
      <point x="525" y="332"/>
      <point x="433" y="396"/>
      <point x="296" y="396" type="curve" smooth="yes"/>
      <point x="276" y="396" type="line"/>
      <point x="487" y="643" type="line" smooth="yes"/>
      <point x="491" y="648"/>
      <point x="495" y="654"/>
      <point x="495" y="662" type="curve" smooth="yes"/>
      <point x="495" y="677" type="line" smooth="yes"/>
      <point x="495" y="691"/>
      <point x="486" y="700"/>
      <point x="472" y="700" type="curve" smooth="yes"/>
    </contour>
  </outline>
</glyph>
<glyph name="four" format="1">
  <advance width="595"/>
  <unicode hex="0034"/>
  <outline>
    <contour>
      <point x="32" y="202" type="line" name="hr00"/>
      <point x="32" y="189"/>
      <point x="41" y="180"/>
      <point x="54" y="180" type="curve" smooth="yes"/>
      <point x="384" y="180" type="line"/>
      <point x="384" y="22" type="line" smooth="yes"/>
      <point x="384" y="9"/>
      <point x="393" y="0"/>
      <point x="406" y="0" type="curve" smooth="yes"/>
      <point x="425" y="0" type="line" smooth="yes"/>
      <point x="438" y="0"/>
      <point x="447" y="9"/>
      <point x="447" y="22" type="curve" smooth="yes"/>
      <point x="447" y="180" type="line"/>
      <point x="538" y="180" type="line" smooth="yes"/>
      <point x="551" y="180"/>
      <point x="560" y="189"/>
      <point x="560" y="202" type="curve" smooth="yes"/>
      <point x="560" y="218" type="line" smooth="yes"/>
      <point x="560" y="231"/>
      <point x="551" y="240"/>
      <point x="538" y="240" type="curve" smooth="yes"/>
      <point x="447" y="240" type="line"/>
      <point x="447" y="678" type="line" smooth="yes"/>
      <point x="447" y="691"/>
      <point x="438" y="700"/>
      <point x="425" y="700" type="curve" smooth="yes"/>
      <point x="384" y="700" type="line" smooth="yes"/>
      <point x="368" y="700"/>
      <point x="354" y="693"/>
      <point x="347" y="683" type="curve" smooth="yes"/>
      <point x="43" y="248" type="line" smooth="yes"/>
      <point x="33" y="234"/>
      <point x="32" y="220"/>
      <point x="32" y="218" type="curve" smooth="yes"/>
    </contour>
    <contour>
      <point x="111" y="240" type="line"/>
      <point x="384" y="629" type="line"/>
      <point x="384" y="240" type="line"/>
    </contour>
  </outline>
</glyph>
<glyph name="eight" format="1">
  <advance width="618"/>
  <unicode hex="0038"/>
  <outline>
    <contour>
      <point x="60" y="197" type="curve" smooth="yes"/>
      <point x="60" y="63"/>
      <point x="172" y="-10"/>
      <point x="309" y="-10" type="curve" smooth="yes"/>
      <point x="446" y="-10"/>
      <point x="558" y="63"/>
      <point x="558" y="197" type="curve" smooth="yes"/>
      <point x="558" y="282"/>
      <point x="513" y="342"/>
      <point x="445" y="374" type="curve"/>
      <point x="498" y="404"/>
      <point x="533" y="455"/>
      <point x="533" y="526" type="curve" name="hr01" smooth="yes"/>
      <point x="533" y="647"/>
      <point x="433" y="710"/>
      <point x="309" y="710" type="curve" smooth="yes"/>
      <point x="185" y="710"/>
      <point x="85" y="647"/>
      <point x="85" y="526" type="curve" smooth="yes"/>
      <point x="85" y="455"/>
      <point x="119" y="404"/>
      <point x="173" y="374" type="curve"/>
      <point x="105" y="342"/>
      <point x="60" y="282"/>
    </contour>
    <contour>
      <point x="123" y="197" type="curve" smooth="yes"/>
      <point x="123" y="288"/>
      <point x="206" y="343"/>
      <point x="309" y="343" type="curve" smooth="yes"/>
      <point x="412" y="343"/>
      <point x="495" y="288"/>
      <point x="495" y="197" type="curve" smooth="yes"/>
      <point x="495" y="106"/>
      <point x="412" y="50"/>
      <point x="309" y="50" type="curve" smooth="yes"/>
      <point x="206" y="50"/>
      <point x="123" y="106"/>
    </contour>
    <contour>
      <point x="148" y="526" type="curve" name="hr03" smooth="yes"/>
      <point x="148" y="604"/>
      <point x="220" y="650"/>
      <point x="309" y="650" type="curve" smooth="yes"/>
      <point x="398" y="650"/>
      <point x="470" y="604"/>
      <point x="470" y="526" type="curve" smooth="yes"/>
      <point x="470" y="450"/>
      <point x="395" y="405"/>
      <point x="309" y="403" type="curve"/>
      <point x="220" y="403"/>
      <point x="148" y="448"/>
    </contour>
  </outline>
</glyph>
<glyph name="semicolon" format="1">
  <advance width="259"/>
  <unicode hex="003B"/>
  <outline>
    <contour>
      <point x="179" y="420" type="line" name="hr00" smooth="yes"/>
      <point x="179" y="433"/>
      <point x="169" y="443"/>
      <point x="156" y="443" type="curve" smooth="yes"/>
      <point x="108" y="443" type="line" smooth="yes"/>
      <point x="95" y="443"/>
      <point x="86" y="433"/>
      <point x="86" y="420" type="curve" smooth="yes"/>
      <point x="86" y="372" type="line" smooth="yes"/>
      <point x="86" y="359"/>
      <point x="95" y="350"/>
      <point x="108" y="350" type="curve" smooth="yes"/>
      <point x="156" y="350" type="line" smooth="yes"/>
      <point x="169" y="350"/>
      <point x="179" y="359"/>
      <point x="179" y="372" type="curve" smooth="yes"/>
    </contour>
    <contour>
      <point x="74" y="-54" type="line" smooth="yes"/>
      <point x="72" y="-66"/>
      <point x="77" y="-75"/>
      <point x="88" y="-75" type="curve" smooth="yes"/>
      <point x="105" y="-75" type="line" smooth="yes"/>
      <point x="120" y="-75"/>
      <point x="125" y="-67"/>
      <point x="131" y="-54" type="curve"/>
      <point x="174" y="59" type="line" smooth="yes"/>
      <point x="177" y="66"/>
      <point x="178" y="72"/>
      <point x="178" y="77" type="curve" smooth="yes"/>
      <point x="178" y="85"/>
      <point x="172" y="93"/>
      <point x="163" y="93" type="curve" smooth="yes"/>
      <point x="118" y="93" type="line" smooth="yes"/>
      <point x="102" y="93"/>
      <point x="95" y="82"/>
      <point x="93" y="66" type="curve" smooth="yes"/>
    </contour>
  </outline>
</glyph>
<glyph name="equal" format="1">
  <advance width="571"/>
  <unicode hex="003D"/>
  <outline>
    <contour>
      <point x="473" y="396" type="line" name="hr00" smooth="yes"/>
      <point x="486" y="396"/>
      <point x="495" y="405"/>
      <point x="495" y="418" type="curve" smooth="yes"/>
      <point x="495" y="432" type="line" smooth="yes"/>
      <point x="495" y="445"/>
      <point x="486" y="454"/>
      <point x="473" y="454" type="curve" smooth="yes"/>
      <point x="98" y="454" type="line" smooth="yes"/>
      <point x="85" y="454"/>
      <point x="76" y="445"/>
      <point x="76" y="432" type="curve" smooth="yes"/>
      <point x="76" y="418" type="line" smooth="yes"/>
      <point x="76" y="405"/>
      <point x="85" y="396"/>
      <point x="98" y="396" type="curve" smooth="yes"/>
    </contour>
    <contour>
      <point x="473" y="146" type="line" smooth="yes"/>
      <point x="486" y="146"/>
      <point x="495" y="155"/>
      <point x="495" y="168" type="curve" smooth="yes"/>
      <point x="495" y="182" type="line" smooth="yes"/>
      <point x="495" y="195"/>
      <point x="486" y="204"/>
      <point x="473" y="204" type="curve" smooth="yes"/>
      <point x="98" y="204" type="line" smooth="yes"/>
      <point x="85" y="204"/>
      <point x="76" y="195"/>
      <point x="76" y="182" type="curve" smooth="yes"/>
      <point x="76" y="168" type="line" smooth="yes"/>
      <point x="76" y="155"/>
      <point x="85" y="146"/>
      <point x="98" y="146" type="curve" smooth="yes"/>
    </contour>
  </outline>
</glyph>
<glyph name="G" format="1">
  <advance width="664"/>
  <unicode hex="0047"/>
  <outline>
    <contour>
      <point x="334" y="650" type="curve" name="hr00" smooth="yes"/>
      <point x="453" y="650"/>
      <point x="510" y="587"/>
      <point x="530" y="525" type="curve" smooth="yes"/>
      <point x="535" y="510"/>
      <point x="539" y="505"/>
      <point x="551" y="505" type="curve" smooth="yes"/>
      <point x="573" y="505" type="line" smooth="yes"/>
      <point x="586" y="505"/>
      <point x="595" y="513"/>
      <point x="594" y="525" type="curve" smooth="yes"/>
      <point x="591" y="582"/>
      <point x="519" y="710"/>
      <point x="334" y="710" type="curve" smooth="yes"/>
      <point x="163" y="710"/>
      <point x="72" y="602"/>
      <point x="67" y="445" type="curve" smooth="yes"/>
      <point x="65" y="385"/>
      <point x="65" y="315"/>
      <point x="67" y="255" type="curve" smooth="yes"/>
      <point x="72" y="99"/>
      <point x="162" y="-10"/>
      <point x="334" y="-10" type="curve" smooth="yes"/>
      <point x="506" y="-10"/>
      <point x="604" y="100"/>
      <point x="604" y="260" type="curve" smooth="yes"/>
      <point x="604" y="348" type="line" smooth="yes"/>
      <point x="604" y="362"/>
      <point x="595" y="371"/>
      <point x="581" y="371" type="curve" smooth="yes"/>
      <point x="367" y="371" type="line" smooth="yes"/>
      <point x="354" y="371"/>
      <point x="345" y="362"/>
      <point x="345" y="348" type="curve" smooth="yes"/>
      <point x="345" y="334" type="line" smooth="yes"/>
      <point x="345" y="320"/>
      <point x="354" y="311"/>
      <point x="367" y="311" type="curve" smooth="yes"/>
      <point x="541" y="311" type="line"/>
      <point x="541" y="260" type="line" smooth="yes"/>
      <point x="541" y="115"/>
      <point x="452" y="50"/>
      <point x="334" y="50" type="curve" smooth="yes"/>
      <point x="215" y="50"/>
      <point x="135" y="110"/>
      <point x="130" y="260" type="curve" smooth="yes"/>
      <point x="128" y="320"/>
      <point x="128" y="380"/>
      <point x="130" y="440" type="curve" smooth="yes"/>
      <point x="135" y="590"/>
      <point x="215" y="650"/>
    </contour>
  </outline>
</glyph>
<glyph name="K" format="1">
  <advance width="575"/>
  <unicode hex="004B"/>
  <outline>
    <contour>
      <point x="157" y="677" type="line" name="hr00" smooth="yes"/>
      <point x="157" y="691"/>
      <point x="148" y="700"/>
      <point x="134" y="700" type="curve" smooth="yes"/>
      <point x="116" y="700" type="line" smooth="yes"/>
      <point x="103" y="700"/>
      <point x="94" y="691"/>
      <point x="94" y="677" type="curve" smooth="yes"/>
      <point x="94" y="22" type="line" smooth="yes"/>
      <point x="94" y="9"/>
      <point x="103" y="0"/>
      <point x="116" y="0" type="curve" smooth="yes"/>
      <point x="134" y="0" type="line" smooth="yes"/>
      <point x="148" y="0"/>
      <point x="157" y="9"/>
      <point x="157" y="22" type="curve" smooth="yes"/>
      <point x="157" y="311" type="line"/>
      <point x="481" y="15" type="line" smooth="yes"/>
      <point x="486" y="11"/>
      <point x="498" y="0"/>
      <point x="519" y="0" type="curve" smooth="yes"/>
      <point x="536" y="0" type="line" smooth="yes"/>
      <point x="547" y="0"/>
      <point x="556" y="9"/>
      <point x="556" y="20" type="curve" smooth="yes"/>
      <point x="556" y="24"/>
      <point x="555" y="29"/>
      <point x="550" y="34" type="curve" smooth="yes"/>
      <point x="190" y="365" type="line"/>
      <point x="529" y="667" type="line" smooth="yes"/>
      <point x="533" y="671"/>
      <point x="534" y="676"/>
      <point x="534" y="680" type="curve" smooth="yes"/>
      <point x="534" y="691"/>
      <point x="525" y="700"/>
      <point x="514" y="700" type="curve" smooth="yes"/>
      <point x="498" y="700" type="line" smooth="yes"/>
      <point x="477" y="700"/>
      <point x="465" y="689"/>
      <point x="460" y="685" type="curve" smooth="yes"/>
      <point x="157" y="417" type="line"/>
    </contour>
  </outline>
</glyph>
<glyph name="M" format="1">
  <advance width="780"/>
  <unicode hex="004D"/>
  <outline>
    <contour>
      <point x="379" y="168" type="line" name="hr00" smooth="yes"/>
      <point x="363" y="168"/>
      <point x="354" y="175"/>
      <point x="348" y="188" type="curve" smooth="yes"/>
      <point x="157" y="564" type="line"/>
      <point x="157" y="22" type="line" smooth="yes"/>
      <point x="157" y="9"/>
      <point x="148" y="0"/>
      <point x="135" y="0" type="curve" smooth="yes"/>
      <point x="117" y="0" type="line" smooth="yes"/>
      <point x="103" y="0"/>
      <point x="94" y="9"/>
      <point x="94" y="22" type="curve" smooth="yes"/>
      <point x="94" y="677" type="line" smooth="yes"/>
      <point x="94" y="691"/>
      <point x="103" y="700"/>
      <point x="117" y="700" type="curve" smooth="yes"/>
      <point x="142" y="700" type="line" smooth="yes"/>
      <point x="155" y="700"/>
      <point x="161" y="691"/>
      <point x="163" y="687" type="curve" smooth="yes"/>
      <point x="390" y="245" type="line"/>
      <point x="618" y="687" type="line" smooth="yes"/>
      <point x="620" y="691"/>
      <point x="626" y="700"/>
      <point x="639" y="700" type="curve" smooth="yes"/>
      <point x="663" y="700" type="line" smooth="yes"/>
      <point x="677" y="700"/>
      <point x="686" y="691"/>
      <point x="686" y="677" type="curve" smooth="yes"/>
      <point x="686" y="22" type="line" smooth="yes"/>
      <point x="686" y="9"/>
      <point x="677" y="0"/>
      <point x="663" y="0" type="curve" smooth="yes"/>
      <point x="645" y="0" type="line" smooth="yes"/>
      <point x="632" y="0"/>
      <point x="623" y="9"/>
      <point x="623" y="22" type="curve" smooth="yes"/>
      <point x="623" y="564" type="line"/>
      <point x="432" y="188" type="line" smooth="yes"/>
      <point x="426" y="175"/>
      <point x="417" y="168"/>
      <point x="401" y="168" type="curve" smooth="yes"/>
    </contour>
  </outline>
</glyph>
<glyph name="N" format="1">
  <advance width="684"/>
  <unicode hex="004E"/>
  <outline>
    <contour>
      <point x="525" y="12" type="line" name="hr00"/>
      <point x="527" y="9"/>
      <point x="533" y="0"/>
      <point x="546" y="0" type="curve" smooth="yes"/>
      <point x="568" y="0" type="line" smooth="yes"/>
      <point x="581" y="0"/>
      <point x="590" y="9"/>
      <point x="590" y="23" type="curve" smooth="yes"/>
      <point x="590" y="677" type="line" smooth="yes"/>
      <point x="590" y="691"/>
      <point x="581" y="700"/>
      <point x="567" y="700" type="curve" smooth="yes"/>
      <point x="549" y="700" type="line" smooth="yes"/>
      <point x="536" y="700"/>
      <point x="527" y="691"/>
      <point x="527" y="677" type="curve" smooth="yes"/>
      <point x="527" y="124" type="line"/>
      <point x="158" y="688" type="line" smooth="yes"/>
      <point x="156" y="691"/>
      <point x="150" y="700"/>
      <point x="137" y="700" type="curve" smooth="yes"/>
      <point x="116" y="700" type="line" smooth="yes"/>
      <point x="103" y="700"/>
      <point x="94" y="691"/>
      <point x="94" y="677" type="curve" smooth="yes"/>
      <point x="94" y="22" type="line" smooth="yes"/>
      <point x="94" y="9"/>
      <point x="103" y="0"/>
      <point x="116" y="0" type="curve" smooth="yes"/>
      <point x="134" y="0" type="line" smooth="yes"/>
      <point x="148" y="0"/>
      <point x="157" y="9"/>
      <point x="157" y="22" type="curve" smooth="yes"/>
      <point x="157" y="574" type="line"/>
    </contour>
  </outline>
</glyph>
<glyph name="R" format="1">
  <advance width="640"/>
  <unicode hex="0052"/>
  <outline>
    <contour>
      <point x="116" y="700" type="line" name="hr00" smooth="yes"/>
      <point x="103" y="700"/>
      <point x="94" y="691"/>
      <point x="94" y="677" type="curve" smooth="yes"/>
      <point x="94" y="22" type="line" smooth="yes"/>
      <point x="94" y="9"/>
      <point x="103" y="0"/>
      <point x="116" y="0" type="curve" smooth="yes"/>
      <point x="134" y="0" type="line" smooth="yes"/>
      <point x="148" y="0"/>
      <point x="157" y="9"/>
      <point x="157" y="22" type="curve" smooth="yes"/>
      <point x="157" y="296" type="line"/>
      <point x="363" y="296" type="line"/>
      <point x="522" y="27" type="line" smooth="yes"/>
      <point x="530" y="13"/>
      <point x="538" y="0"/>
      <point x="560" y="0" type="curve" smooth="yes"/>
      <point x="572" y="0" type="line" smooth="yes"/>
      <point x="583" y="0"/>
      <point x="592" y="9"/>
      <point x="592" y="20" type="curve" smooth="yes"/>
      <point x="592" y="24"/>
      <point x="591" y="27"/>
      <point x="589" y="31" type="curve" smooth="yes"/>
      <point x="428" y="305" type="line"/>
      <point x="523" y="327"/>
      <point x="579" y="391"/>
      <point x="579" y="498" type="curve" smooth="yes"/>
      <point x="579" y="634"/>
      <point x="489" y="700"/>
      <point x="349" y="700" type="curve" smooth="yes"/>
    </contour>
    <contour>
      <point x="157" y="640" type="line"/>
      <point x="344" y="640" type="line" smooth="yes"/>
      <point x="460" y="640"/>
      <point x="516" y="593"/>
      <point x="516" y="498" type="curve" smooth="yes"/>
      <point x="516" y="403"/>
      <point x="460" y="356"/>
      <point x="344" y="356" type="curve" smooth="yes"/>
      <point x="157" y="356" type="line"/>
    </contour>
  </outline>
</glyph>
<glyph name="W" format="1">
  <advance width="788"/>
  <unicode hex="0057"/>
  <outline>
    <contour>
      <point x="436" y="522" type="line" name="hr00"/>
      <point x="432" y="534"/>
      <point x="423" y="545"/>
      <point x="405" y="545" type="curve"/>
      <point x="383" y="545" type="line"/>
      <point x="365" y="545"/>
      <point x="356" y="534"/>
      <point x="352" y="522" type="curve"/>
      <point x="228" y="115" type="line"/>
      <point x="111" y="685" type="line"/>
      <point x="109" y="694"/>
      <point x="102" y="700"/>
      <point x="89" y="700" type="curve"/>
      <point x="68" y="700" type="line"/>
      <point x="57" y="700"/>
      <point x="48" y="691"/>
      <point x="48" y="680" type="curve" smooth="yes"/>
      <point x="48" y="678"/>
      <point x="49" y="673"/>
      <point x="50" y="668" type="curve"/>
      <point x="187" y="24" type="line"/>
      <point x="191" y="7"/>
      <point x="199" y="0"/>
      <point x="215" y="0" type="curve"/>
      <point x="230" y="0" type="line"/>
      <point x="246" y="0"/>
      <point x="256" y="8"/>
      <point x="261" y="24" type="curve"/>
      <point x="394" y="446" type="line"/>
      <point x="527" y="24" type="line"/>
      <point x="532" y="8"/>
      <point x="542" y="0"/>
      <point x="558" y="0" type="curve"/>
      <point x="573" y="0" type="line"/>
      <point x="589" y="0"/>
      <point x="597" y="7"/>
      <point x="601" y="24" type="curve"/>
      <point x="738" y="668" type="line"/>
      <point x="739" y="673"/>
      <point x="740" y="678"/>
      <point x="740" y="680" type="curve" smooth="yes"/>
      <point x="740" y="691"/>
      <point x="731" y="700"/>
      <point x="720" y="700" type="curve"/>
      <point x="699" y="700" type="line"/>
      <point x="686" y="700"/>
      <point x="679" y="694"/>
      <point x="677" y="685" type="curve"/>
      <point x="560" y="115" type="line"/>
    </contour>
  </outline>
</glyph>
<glyph name="X" format="1">
  <advance width="609"/>
  <unicode hex="0058"/>
  <outline>
    <contour>
      <point x="565" y="667" type="line" name="hr00"/>
      <point x="567" y="670"/>
      <point x="569" y="675"/>
      <point x="569" y="680" type="curve" smooth="yes"/>
      <point x="569" y="691"/>
      <point x="560" y="700"/>
      <point x="549" y="700" type="curve"/>
      <point x="527" y="700" type="line"/>
      <point x="518" y="700"/>
      <point x="511" y="695"/>
      <point x="504" y="685" type="curve"/>
      <point x="307" y="405" type="line"/>
      <point x="106" y="685" type="line"/>
      <point x="99" y="695"/>
      <point x="92" y="700"/>
      <point x="83" y="700" type="curve"/>
      <point x="59" y="700" type="line"/>
      <point x="48" y="700"/>
      <point x="39" y="691"/>
      <point x="39" y="680" type="curve" smooth="yes"/>
      <point x="39" y="675"/>
      <point x="41" y="670"/>
      <point x="43" y="667" type="curve"/>
      <point x="267" y="356" type="line"/>
      <point x="34" y="33" type="line"/>
      <point x="32" y="30"/>
      <point x="30" y="25"/>
      <point x="30" y="20" type="curve" smooth="yes"/>
      <point x="30" y="9"/>
      <point x="39" y="0"/>
      <point x="50" y="0" type="curve"/>
      <point x="72" y="0" type="line"/>
      <point x="81" y="0"/>
      <point x="88" y="5"/>
      <point x="95" y="15" type="curve"/>
      <point x="304" y="304" type="line"/>
      <point x="513" y="15" type="line"/>
      <point x="520" y="5"/>
      <point x="527" y="0"/>
      <point x="536" y="0" type="curve"/>
      <point x="560" y="0" type="line"/>
      <point x="571" y="0"/>
      <point x="580" y="9"/>
      <point x="580" y="20" type="curve" smooth="yes"/>
      <point x="580" y="25"/>
      <point x="578" y="30"/>
      <point x="576" y="33" type="curve"/>
      <point x="344" y="354" type="line"/>
    </contour>
  </outline>
</glyph>
<glyph name="Y" format="1">
  <advance width="632"/>
  <unicode hex="0059"/>
  <outline>
    <contour>
      <point x="99" y="685" type="line" name="hr00" smooth="yes"/>
      <point x="93" y="695"/>
      <point x="85" y="700"/>
      <point x="76" y="700" type="curve" smooth="yes"/>
      <point x="56" y="700" type="line" smooth="yes"/>
      <point x="45" y="700"/>
      <point x="36" y="691"/>
      <point x="36" y="680" type="curve" smooth="yes"/>
      <point x="36" y="675"/>
      <point x="38" y="671"/>
      <point x="40" y="667" type="curve" smooth="yes"/>
      <point x="284" y="267" type="line"/>
      <point x="284" y="22" type="line" smooth="yes"/>
      <point x="284" y="9"/>
      <point x="293" y="0"/>
      <point x="306" y="0" type="curve" smooth="yes"/>
      <point x="325" y="0" type="line" smooth="yes"/>
      <point x="339" y="0"/>
      <point x="348" y="9"/>
      <point x="348" y="22" type="curve" smooth="yes"/>
      <point x="348" y="267" type="line"/>
      <point x="592" y="667" type="line" smooth="yes"/>
      <point x="594" y="671"/>
      <point x="596" y="675"/>
      <point x="596" y="680" type="curve" smooth="yes"/>
      <point x="596" y="691"/>
      <point x="587" y="700"/>
      <point x="576" y="700" type="curve" smooth="yes"/>
      <point x="556" y="700" type="line" smooth="yes"/>
      <point x="547" y="700"/>
      <point x="539" y="695"/>
      <point x="533" y="685" type="curve" smooth="yes"/>
      <point x="316" y="332" type="line"/>
    </contour>
  </outline>
</glyph>
<glyph name="bracketright" format="1">
  <advance width="301"/>
  <unicode hex="005D"/>
  <outline>
    <contour>
      <point x="50" y="776" type="line" smooth="yes"/>
      <point x="37" y="776"/>
      <point x="28" y="767"/>
      <point x="28" y="754" type="curve" smooth="yes"/>
      <point x="28" y="740" type="line" smooth="yes"/>
      <point x="28" y="727"/>
      <point x="37" y="718"/>
      <point x="50" y="718" type="curve" smooth="yes"/>
      <point x="162" y="718" type="line" name="hr01"/>
      <point x="162" y="-101" type="line"/>
      <point x="50" y="-101" type="line" smooth="yes"/>
      <point x="37" y="-101"/>
      <point x="28" y="-110"/>
      <point x="28" y="-123" type="curve" name="hr02" smooth="yes"/>
      <point x="28" y="-137" type="line" smooth="yes"/>
      <point x="28" y="-150"/>
      <point x="37" y="-159"/>
      <point x="50" y="-159" type="curve" smooth="yes"/>
      <point x="201" y="-159" type="line" smooth="yes"/>
      <point x="214" y="-159"/>
      <point x="223" y="-150"/>
      <point x="223" y="-137" type="curve" smooth="yes"/>
      <point x="223" y="754" type="line" smooth="yes"/>
      <point x="223" y="767"/>
      <point x="214" y="776"/>
      <point x="201" y="776" type="curve" smooth="yes"/>
    </contour>
  </outline>
</glyph>
<glyph name="underscore" format="1">
  <advance width="753"/>
  <unicode hex="005F"/>
  <outline>
    <contour>
      <point x="664" y="-28" type="line" name="hr00"/>
      <point x="677" y="-28"/>
      <point x="686" y="-19"/>
      <point x="686" y="-6" type="curve" smooth="yes"/>
      <point x="686" y="8" type="line" smooth="yes"/>
      <point x="686" y="21"/>
      <point x="677" y="30"/>
      <point x="664" y="30" type="curve" smooth="yes"/>
      <point x="89" y="30" type="line" smooth="yes"/>
      <point x="76" y="30"/>
      <point x="67" y="21"/>
      <point x="67" y="8" type="curve" smooth="yes"/>
      <point x="67" y="-6" type="line" smooth="yes"/>
      <point x="67" y="-19"/>
      <point x="76" y="-28"/>
      <point x="89" y="-28" type="curve" smooth="yes"/>
    </contour>
  </outline>
</glyph>
<glyph name="a" format="1">
  <advance width="536"/>
  <unicode hex="0061"/>
  <outline>
    <contour>
      <point x="420" y="0" type="curve"/>
      <point x="437" y="0" type="line" smooth="yes"/>
      <point x="450" y="0"/>
      <point x="459" y="9"/>
      <point x="459" y="22" type="curve" smooth="yes"/>
      <point x="459" y="355" type="line" smooth="yes"/>
      <point x="459" y="435"/>
      <point x="420" y="530"/>
      <point x="262" y="530" type="curve" smooth="yes"/>
      <point x="129" y="530"/>
      <point x="77" y="442"/>
      <point x="77" y="405" type="curve" smooth="yes"/>
      <point x="77" y="393"/>
      <point x="87" y="383"/>
      <point x="99" y="383" type="curve" smooth="yes"/>
      <point x="113" y="383" type="line" smooth="yes"/>
      <point x="125" y="383"/>
      <point x="132" y="388"/>
      <point x="137" y="404" type="curve" smooth="yes"/>
      <point x="148" y="437"/>
      <point x="188" y="472"/>
      <point x="262" y="472" type="curve" smooth="yes"/>
      <point x="356" y="472"/>
      <point x="398" y="429"/>
      <point x="398" y="358" type="curve" smooth="yes"/>
      <point x="398" y="323" type="line"/>
      <point x="240" y="301" type="line" smooth="yes"/>
      <point x="123" y="285"/>
      <point x="42" y="229"/>
      <point x="42" y="139" type="curve" smooth="yes"/>
      <point x="42" y="55"/>
      <point x="125" y="-10"/>
      <point x="221" y="-10" type="curve" name="hr01" smooth="yes"/>
      <point x="324" y="-10"/>
      <point x="374" y="33"/>
      <point x="398" y="69" type="curve"/>
      <point x="398" y="22" type="line" smooth="yes"/>
      <point x="398" y="9"/>
      <point x="407" y="0"/>
    </contour>
    <contour>
      <point x="231" y="48" type="curve" name="hr03" smooth="yes"/>
      <point x="169" y="48"/>
      <point x="103" y="78"/>
      <point x="103" y="144" type="curve" smooth="yes"/>
      <point x="103" y="198"/>
      <point x="160" y="235"/>
      <point x="269" y="250" type="curve" smooth="yes"/>
      <point x="398" y="268" type="line"/>
      <point x="398" y="234" type="line" smooth="yes"/>
      <point x="398" y="108"/>
      <point x="323" y="48"/>
    </contour>
  </outline>
</glyph>
<glyph name="g" format="1">
  <advance width="581"/>
  <unicode hex="0067"/>
  <outline>
    <contour>
      <point x="56" y="288" type="curve" smooth="yes"/>
      <point x="55" y="268"/>
      <point x="55" y="252"/>
      <point x="56" y="232" type="curve" smooth="yes"/>
      <point x="59" y="115"/>
      <point x="114" y="-10"/>
      <point x="270" y="-10" type="curve" smooth="yes"/>
      <point x="352" y="-10"/>
      <point x="405" y="24"/>
      <point x="438" y="69" type="curve"/>
      <point x="438" y="0" type="line" smooth="yes"/>
      <point x="438" y="-127"/>
      <point x="379" y="-162"/>
      <point x="270" y="-162" type="curve" smooth="yes"/>
      <point x="166" y="-162"/>
      <point x="137" y="-103"/>
      <point x="126" y="-71" type="curve" smooth="yes"/>
      <point x="120" y="-53"/>
      <point x="112" y="-50"/>
      <point x="102" y="-50" type="curve" smooth="yes"/>
      <point x="88" y="-50" type="line" smooth="yes"/>
      <point x="76" y="-50"/>
      <point x="65" y="-60"/>
      <point x="66" y="-73" type="curve" smooth="yes"/>
      <point x="68" y="-113"/>
      <point x="105" y="-220"/>
      <point x="275" y="-220" type="curve" smooth="yes"/>
      <point x="453" y="-220"/>
      <point x="499" y="-118"/>
      <point x="499" y="10" type="curve" smooth="yes"/>
      <point x="499" y="497" type="line" smooth="yes"/>
      <point x="499" y="510"/>
      <point x="489" y="520"/>
      <point x="476" y="520" type="curve" smooth="yes"/>
      <point x="460" y="520" type="line" smooth="yes"/>
      <point x="447" y="520"/>
      <point x="438" y="510"/>
      <point x="438" y="497" type="curve" smooth="yes"/>
      <point x="438" y="451" type="line"/>
      <point x="405" y="495"/>
      <point x="352" y="530"/>
      <point x="270" y="530" type="curve" name="hr01" smooth="yes"/>
      <point x="114" y="530"/>
      <point x="59" y="405"/>
    </contour>
    <contour>
      <point x="438" y="296" type="curve"/>
      <point x="439" y="276"/>
      <point x="439" y="244"/>
      <point x="438" y="224" type="curve"/>
      <point x="434" y="142"/>
      <point x="390" y="48"/>
      <point x="276" y="48" type="curve" smooth="yes"/>
      <point x="159" y="48"/>
      <point x="120" y="136"/>
      <point x="117" y="232" type="curve" smooth="yes"/>
      <point x="116" y="252"/>
      <point x="116" y="268"/>
      <point x="117" y="288" type="curve" smooth="yes"/>
      <point x="120" y="384"/>
      <point x="159" y="472"/>
      <point x="276" y="472" type="curve" smooth="yes"/>
      <point x="390" y="472"/>
      <point x="434" y="378"/>
    </contour>
  </outline>
</glyph>
<glyph name="j" format="1">
  <advance width="233"/>
  <unicode hex="006A"/>
  <outline>
    <contour>
      <point x="90" y="-22" type="line" name="hr00" smooth="yes"/>
      <point x="90" y="-83"/>
      <point x="81" y="-132"/>
      <point x="0" y="-132" type="curve" smooth="yes"/>
      <point x="-4" y="-132" type="line" smooth="yes"/>
      <point x="-17" y="-132"/>
      <point x="-26" y="-141"/>
      <point x="-26" y="-154" type="curve" smooth="yes"/>
      <point x="-26" y="-168" type="line" smooth="yes"/>
      <point x="-26" y="-181"/>
      <point x="-17" y="-190"/>
      <point x="-4" y="-190" type="curve" smooth="yes"/>
      <point x="0" y="-190" type="line" smooth="yes"/>
      <point x="122" y="-190"/>
      <point x="151" y="-116"/>
      <point x="151" y="-22" type="curve" smooth="yes"/>
      <point x="151" y="498" type="line" smooth="yes"/>
      <point x="151" y="511"/>
      <point x="142" y="520"/>
      <point x="129" y="520" type="curve" smooth="yes"/>
      <point x="112" y="520" type="line" smooth="yes"/>
      <point x="99" y="520"/>
      <point x="90" y="511"/>
      <point x="90" y="498" type="curve" smooth="yes"/>
    </contour>
    <contour>
      <point x="162" y="687" type="line" smooth="yes"/>
      <point x="162" y="700"/>
      <point x="152" y="710"/>
      <point x="139" y="710" type="curve" smooth="yes"/>
      <point x="101" y="710" type="line" smooth="yes"/>
      <point x="88" y="710"/>
      <point x="79" y="700"/>
      <point x="79" y="687" type="curve" smooth="yes"/>
      <point x="79" y="649" type="line" smooth="yes"/>
      <point x="79" y="636"/>
      <point x="88" y="627"/>
      <point x="101" y="627" type="curve" smooth="yes"/>
      <point x="139" y="627" type="line" smooth="yes"/>
      <point x="152" y="627"/>
      <point x="162" y="636"/>
      <point x="162" y="649" type="curve" smooth="yes"/>
    </contour>
  </outline>
</glyph>
<glyph name="x" format="1">
  <advance width="518"/>
  <unicode hex="0078"/>
  <outline>
    <contour>
      <point x="416" y="15" type="line" name="hr00" smooth="yes"/>
      <point x="421" y="8"/>
      <point x="428" y="0"/>
      <point x="441" y="0" type="curve" smooth="yes"/>
      <point x="462" y="0" type="line" smooth="yes"/>
      <point x="473" y="0"/>
      <point x="482" y="9"/>
      <point x="482" y="20" type="curve" smooth="yes"/>
      <point x="482" y="25"/>
      <point x="481" y="31"/>
      <point x="474" y="40" type="curve" smooth="yes"/>
      <point x="298" y="263" type="line"/>
      <point x="467" y="480" type="line" smooth="yes"/>
      <point x="474" y="489"/>
      <point x="475" y="495"/>
      <point x="475" y="500" type="curve" smooth="yes"/>
      <point x="475" y="511"/>
      <point x="466" y="520"/>
      <point x="455" y="520" type="curve" smooth="yes"/>
      <point x="435" y="520" type="line" smooth="yes"/>
      <point x="422" y="520"/>
      <point x="416" y="511"/>
      <point x="410" y="504" type="curve" smooth="yes"/>
      <point x="260" y="312" type="line"/>
      <point x="110" y="505" type="line" smooth="yes"/>
      <point x="104" y="512"/>
      <point x="98" y="520"/>
      <point x="85" y="520" type="curve" smooth="yes"/>
      <point x="64" y="520" type="line" smooth="yes"/>
      <point x="53" y="520"/>
      <point x="44" y="511"/>
      <point x="44" y="500" type="curve" smooth="yes"/>
      <point x="44" y="495"/>
      <point x="45" y="489"/>
      <point x="52" y="480" type="curve" smooth="yes"/>
      <point x="219" y="266" type="line"/>
      <point x="43" y="40" type="line" smooth="yes"/>
      <point x="36" y="31"/>
      <point x="35" y="25"/>
      <point x="35" y="20" type="curve" smooth="yes"/>
      <point x="35" y="9"/>
      <point x="44" y="0"/>
      <point x="55" y="0" type="curve" smooth="yes"/>
      <point x="75" y="0" type="line" smooth="yes"/>
      <point x="88" y="0"/>
      <point x="94" y="8"/>
      <point x="100" y="15" type="curve" smooth="yes"/>
      <point x="258" y="217" type="line"/>
    </contour>
  </outline>
</glyph>
<glyph name="sterling" format="1">
  <advance width="658"/>
  <unicode hex="00A3"/>
  <outline>
    <contour>
      <point x="419" y="315" type="line" smooth="yes"/>
      <point x="432" y="315"/>
      <point x="441" y="324"/>
      <point x="441" y="337" type="curve" smooth="yes"/>
      <point x="441" y="353" type="line" smooth="yes"/>
      <point x="441" y="366"/>
      <point x="432" y="375"/>
      <point x="419" y="375" type="curve" smooth="yes"/>
      <point x="208" y="375" type="line"/>
      <point x="205" y="400"/>
      <point x="204" y="426"/>
      <point x="204" y="455" type="curve" smooth="yes"/>
      <point x="204" y="569"/>
      <point x="258" y="651"/>
      <point x="365" y="651" type="curve" smooth="yes"/>
      <point x="462" y="651"/>
      <point x="514" y="593"/>
      <point x="531" y="494" type="curve" smooth="yes"/>
      <point x="533" y="482"/>
      <point x="544" y="473"/>
      <point x="554" y="473" type="curve" smooth="yes"/>
      <point x="572" y="473" type="line" smooth="yes"/>
      <point x="584" y="473"/>
      <point x="593" y="483"/>
      <point x="593" y="495" type="curve" smooth="yes"/>
      <point x="590" y="607"/>
      <point x="516" y="711"/>
      <point x="366" y="711" type="curve" smooth="yes"/>
      <point x="209" y="711"/>
      <point x="141" y="590"/>
      <point x="141" y="456" type="curve" smooth="yes"/>
      <point x="141" y="427"/>
      <point x="142" y="400"/>
      <point x="144" y="375" type="curve"/>
      <point x="74" y="375" type="line" smooth="yes"/>
      <point x="61" y="375"/>
      <point x="52" y="366"/>
      <point x="52" y="353" type="curve" smooth="yes"/>
      <point x="52" y="337" type="line" smooth="yes"/>
      <point x="52" y="324"/>
      <point x="61" y="315"/>
      <point x="74" y="315" type="curve" smooth="yes"/>
      <point x="151" y="315" type="line"/>
      <point x="159" y="261"/>
      <point x="168" y="216"/>
      <point x="170" y="171" type="curve"/>
      <point x="106" y="160"/>
      <point x="55" y="114"/>
      <point x="52" y="19" type="curve" smooth="yes"/>
      <point x="52" y="9"/>
      <point x="59" y="0"/>
      <point x="71" y="0" type="curve" smooth="yes"/>
      <point x="94" y="0" type="line" smooth="yes"/>
      <point x="112" y="0"/>
      <point x="114" y="14"/>
      <point x="115" y="21" type="curve" smooth="yes"/>
      <point x="123" y="74"/>
      <point x="137" y="113"/>
      <point x="200" y="113" type="curve" smooth="yes"/>
      <point x="287" y="113"/>
      <point x="321" y="-5"/>
      <point x="449" y="-5" type="curve" name="hr01" smooth="yes"/>
      <point x="535" y="-5"/>
      <point x="596" y="49"/>
      <point x="598" y="149" type="curve" smooth="yes"/>
      <point x="598" y="159"/>
      <point x="591" y="168"/>
      <point x="579" y="168" type="curve" smooth="yes"/>
      <point x="554" y="168" type="line" smooth="yes"/>
      <point x="544" y="168"/>
      <point x="536" y="156"/>
      <point x="535" y="149" type="curve" smooth="yes"/>
      <point x="527" y="96"/>
      <point x="512" y="55"/>
      <point x="449" y="55" type="curve" smooth="yes"/>
      <point x="367" y="55"/>
      <point x="332" y="151"/>
      <point x="234" y="169" type="curve"/>
      <point x="232" y="221"/>
      <point x="224" y="267"/>
      <point x="217" y="315" type="curve"/>
    </contour>
  </outline>
</glyph>
<glyph name="currency" format="1">
  <advance width="578"/>
  <unicode hex="00A4"/>
  <outline>
    <contour>
      <point x="79" y="300" type="curve" name="hr00" smooth="yes"/>
      <point x="79" y="252"/>
      <point x="94" y="209"/>
      <point x="121" y="174" type="curve"/>
      <point x="78" y="132" type="line"/>
      <point x="69" y="123"/>
      <point x="69" y="110"/>
      <point x="78" y="101" type="curve"/>
      <point x="90" y="89" type="line"/>
      <point x="99" y="80"/>
      <point x="112" y="80"/>
      <point x="121" y="89" type="curve"/>
      <point x="163" y="132" type="line"/>
      <point x="198" y="105"/>
      <point x="241" y="90"/>
      <point x="289" y="90" type="curve" smooth="yes"/>
      <point x="336" y="90"/>
      <point x="380" y="105"/>
      <point x="415" y="132" type="curve"/>
      <point x="457" y="89" type="line"/>
      <point x="466" y="80"/>
      <point x="479" y="80"/>
      <point x="488" y="89" type="curve"/>
      <point x="500" y="101" type="line"/>
      <point x="509" y="110"/>
      <point x="509" y="123"/>
      <point x="500" y="132" type="curve"/>
      <point x="457" y="174" type="line"/>
      <point x="483" y="209"/>
      <point x="499" y="252"/>
      <point x="499" y="300" type="curve" smooth="yes"/>
      <point x="499" y="347"/>
      <point x="483" y="391"/>
      <point x="457" y="426" type="curve"/>
      <point x="500" y="468" type="line"/>
      <point x="509" y="477"/>
      <point x="509" y="490"/>
      <point x="500" y="499" type="curve"/>
      <point x="488" y="511" type="line"/>
      <point x="479" y="520"/>
      <point x="466" y="520"/>
      <point x="457" y="511" type="curve"/>
      <point x="415" y="468" type="line"/>
      <point x="380" y="494"/>
      <point x="336" y="510"/>
      <point x="289" y="510" type="curve" smooth="yes"/>
      <point x="241" y="510"/>
      <point x="198" y="494"/>
      <point x="163" y="468" type="curve"/>
      <point x="121" y="511" type="line"/>
      <point x="112" y="520"/>
      <point x="99" y="520"/>
      <point x="90" y="511" type="curve"/>
      <point x="78" y="499" type="line"/>
      <point x="69" y="490"/>
      <point x="69" y="477"/>
      <point x="78" y="468" type="curve"/>
      <point x="121" y="426" type="line"/>
      <point x="94" y="391"/>
      <point x="79" y="347"/>
    </contour>
    <contour>
      <point x="139" y="300" type="curve" smooth="yes"/>
      <point x="139" y="383"/>
      <point x="206" y="450"/>
      <point x="289" y="450" type="curve" smooth="yes"/>
      <point x="372" y="450"/>
      <point x="439" y="383"/>
      <point x="439" y="300" type="curve" smooth="yes"/>
      <point x="439" y="217"/>
      <point x="372" y="150"/>
      <point x="289" y="150" type="curve" smooth="yes"/>
      <point x="206" y="150"/>
      <point x="139" y="217"/>
    </contour>
  </outline>
</glyph>
<glyph name="section" format="1">
  <advance width="553"/>
  <unicode hex="00A7"/>
  <outline>
    <contour>
      <point x="507" y="240" type="curve" smooth="yes"/>
      <point x="507" y="346"/>
      <point x="447" y="392"/>
      <point x="297" y="438" type="curve" smooth="yes"/>
      <point x="188" y="471"/>
      <point x="159" y="486"/>
      <point x="159" y="548" type="curve" smooth="yes"/>
      <point x="159" y="605"/>
      <point x="197" y="652"/>
      <point x="281" y="652" type="curve" smooth="yes"/>
      <point x="376" y="652"/>
      <point x="401" y="612"/>
      <point x="414" y="576" type="curve" smooth="yes"/>
      <point x="420" y="560"/>
      <point x="427" y="556"/>
      <point x="438" y="556" type="curve" smooth="yes"/>
      <point x="456" y="556" type="line" smooth="yes"/>
      <point x="469" y="556"/>
      <point x="478" y="564"/>
      <point x="477" y="576" type="curve" smooth="yes"/>
      <point x="474" y="633"/>
      <point x="418" y="710"/>
      <point x="281" y="710" type="curve" smooth="yes"/>
      <point x="158" y="710"/>
      <point x="98" y="626"/>
      <point x="98" y="548" type="curve" smooth="yes"/>
      <point x="98" y="513"/>
      <point x="104" y="484"/>
      <point x="124" y="460" type="curve"/>
      <point x="81" y="428"/>
      <point x="46" y="387"/>
      <point x="46" y="330" type="curve" name="hr01" smooth="yes"/>
      <point x="46" y="224"/>
      <point x="106" y="178"/>
      <point x="256" y="132" type="curve" smooth="yes"/>
      <point x="365" y="99"/>
      <point x="394" y="84"/>
      <point x="394" y="22" type="curve" smooth="yes"/>
      <point x="394" y="-35"/>
      <point x="356" y="-82"/>
      <point x="272" y="-82" type="curve" smooth="yes"/>
      <point x="177" y="-82"/>
      <point x="152" y="-42"/>
      <point x="139" y="-6" type="curve" smooth="yes"/>
      <point x="133" y="10"/>
      <point x="126" y="14"/>
      <point x="115" y="14" type="curve" smooth="yes"/>
      <point x="97" y="14" type="line" smooth="yes"/>
      <point x="84" y="14"/>
      <point x="75" y="6"/>
      <point x="76" y="-6" type="curve" smooth="yes"/>
      <point x="79" y="-63"/>
      <point x="135" y="-140"/>
      <point x="272" y="-140" type="curve" smooth="yes"/>
      <point x="395" y="-140"/>
      <point x="455" y="-56"/>
      <point x="455" y="22" type="curve" smooth="yes"/>
      <point x="455" y="57"/>
      <point x="449" y="86"/>
      <point x="429" y="110" type="curve"/>
      <point x="472" y="142"/>
      <point x="507" y="183"/>
    </contour>
    <contour>
      <point x="281" y="187" type="curve" smooth="yes"/>
      <point x="134" y="231"/>
      <point x="107" y="269"/>
      <point x="107" y="329" type="curve" smooth="yes"/>
      <point x="107" y="372"/>
      <point x="130" y="396"/>
      <point x="171" y="423" type="curve"/>
      <point x="196" y="409"/>
      <point x="229" y="396"/>
      <point x="272" y="383" type="curve" smooth="yes"/>
      <point x="419" y="339"/>
      <point x="446" y="301"/>
      <point x="446" y="241" type="curve" smooth="yes"/>
      <point x="446" y="198"/>
      <point x="423" y="174"/>
      <point x="382" y="147" type="curve"/>
      <point x="357" y="161"/>
      <point x="324" y="174"/>
    </contour>
  </outline>
</glyph>
<glyph name="copyright" format="1">
  <advance width="834"/>
  <unicode hex="00A9"/>
  <outline>
    <contour>
      <point x="57" y="350" type="curve" smooth="yes"/>
      <point x="57" y="151"/>
      <point x="218" y="-10"/>
      <point x="417" y="-10" type="curve" smooth="yes"/>
      <point x="616" y="-10"/>
      <point x="777" y="151"/>
      <point x="777" y="350" type="curve" smooth="yes"/>
      <point x="777" y="549"/>
      <point x="616" y="710"/>
      <point x="417" y="710" type="curve" smooth="yes"/>
      <point x="218" y="710"/>
      <point x="57" y="549"/>
    </contour>
    <contour>
      <point x="117" y="350" type="curve" smooth="yes"/>
      <point x="117" y="516"/>
      <point x="251" y="655"/>
      <point x="417" y="655" type="curve" smooth="yes"/>
      <point x="583" y="655"/>
      <point x="717" y="516"/>
      <point x="717" y="350" type="curve" smooth="yes"/>
      <point x="717" y="184"/>
      <point x="583" y="45"/>
      <point x="417" y="45" type="curve" smooth="yes"/>
      <point x="251" y="45"/>
      <point x="117" y="184"/>
    </contour>
    <contour>
      <point x="255" y="385" type="curve" smooth="yes"/>
      <point x="254" y="365"/>
      <point x="254" y="337"/>
      <point x="255" y="317" type="curve" smooth="yes"/>
      <point x="258" y="231"/>
      <point x="316" y="158"/>
      <point x="417" y="158" type="curve" smooth="yes"/>
      <point x="524" y="158"/>
      <point x="575" y="218"/>
      <point x="575" y="265" type="curve" smooth="yes"/>
      <point x="575" y="278"/>
      <point x="566" y="287"/>
      <point x="553" y="287" type="curve" smooth="yes"/>
      <point x="536" y="287" type="line" smooth="yes"/>
      <point x="522" y="287"/>
      <point x="517" y="278"/>
      <point x="513" y="268" type="curve" smooth="yes"/>
      <point x="501" y="236"/>
      <point x="474" y="216"/>
      <point x="417" y="216" type="curve" name="hr01" smooth="yes"/>
      <point x="337" y="216"/>
      <point x="318" y="276"/>
      <point x="316" y="317" type="curve" smooth="yes"/>
      <point x="315" y="337"/>
      <point x="315" y="365"/>
      <point x="316" y="385" type="curve" smooth="yes"/>
      <point x="318" y="426"/>
      <point x="337" y="486"/>
      <point x="417" y="486" type="curve" smooth="yes"/>
      <point x="474" y="486"/>
      <point x="501" y="466"/>
      <point x="513" y="434" type="curve" smooth="yes"/>
      <point x="517" y="424"/>
      <point x="522" y="415"/>
      <point x="536" y="415" type="curve" smooth="yes"/>
      <point x="553" y="415" type="line" smooth="yes"/>
      <point x="566" y="415"/>
      <point x="575" y="424"/>
      <point x="575" y="437" type="curve" smooth="yes"/>
      <point x="575" y="484"/>
      <point x="524" y="544"/>
      <point x="417" y="544" type="curve" smooth="yes"/>
      <point x="316" y="544"/>
      <point x="258" y="471"/>
    </contour>
  </outline>
</glyph>
<glyph name="ordfeminine" format="1">
  <advance width="367"/>
  <unicode hex="00AA"/>
  <outline>
    <contour>
      <point x="160" y="483" type="curve" smooth="yes"/>
      <point x="138" y="483"/>
      <point x="120" y="492"/>
      <point x="120" y="507" type="curve" smooth="yes"/>
      <point x="120" y="527"/>
      <point x="131" y="544"/>
      <point x="187" y="552" type="curve" smooth="yes"/>
      <point x="234" y="559" type="line"/>
      <point x="234" y="519"/>
      <point x="214" y="483"/>
    </contour>
    <contour>
      <point x="256" y="434" type="curve"/>
      <point x="273" y="434" type="line" smooth="yes"/>
      <point x="286" y="434"/>
      <point x="295" y="443"/>
      <point x="295" y="456" type="curve" smooth="yes"/>
      <point x="295" y="598" type="line" smooth="yes"/>
      <point x="295" y="660"/>
      <point x="253" y="705"/>
      <point x="187" y="705" type="curve" smooth="yes"/>
      <point x="122" y="705"/>
      <point x="77" y="664"/>
      <point x="75" y="644" type="curve" smooth="yes"/>
      <point x="74" y="631"/>
      <point x="84" y="627"/>
      <point x="97" y="627" type="curve" smooth="yes"/>
      <point x="114" y="627" type="line" smooth="yes"/>
      <point x="136" y="627"/>
      <point x="140" y="647"/>
      <point x="184" y="647" type="curve" name="hr01" smooth="yes"/>
      <point x="232" y="647"/>
      <point x="234" y="617"/>
      <point x="234" y="611" type="curve"/>
      <point x="171" y="602" type="line"/>
      <point x="102" y="592"/>
      <point x="58" y="558"/>
      <point x="58" y="505" type="curve" smooth="yes"/>
      <point x="58" y="463"/>
      <point x="93" y="429"/>
      <point x="151" y="429" type="curve" smooth="yes"/>
      <point x="187" y="429"/>
      <point x="223" y="444"/>
      <point x="234" y="463" type="curve"/>
      <point x="234" y="456" type="line" smooth="yes"/>
      <point x="234" y="443"/>
      <point x="243" y="434"/>
    </contour>
  </outline>
</glyph>
<glyph name="mu" format="1">
  <advance width="586"/>
  <unicode hex="00B5"/>
  <outline>
    <contour>
      <point x="137" y="69" type="line"/>
      <point x="171" y="24"/>
      <point x="215" y="-10"/>
      <point x="293" y="-10" type="curve" smooth="yes"/>
      <point x="371" y="-10"/>
      <point x="415" y="24"/>
      <point x="449" y="69" type="curve"/>
      <point x="449" y="22" type="line"/>
      <point x="449" y="9"/>
      <point x="458" y="0"/>
      <point x="471" y="0" type="curve" name="hr01"/>
      <point x="488" y="0" type="line"/>
      <point x="501" y="0"/>
      <point x="510" y="9"/>
      <point x="510" y="22" type="curve"/>
      <point x="510" y="498" type="line"/>
      <point x="510" y="511"/>
      <point x="501" y="520"/>
      <point x="488" y="520" type="curve"/>
      <point x="471" y="520" type="line"/>
      <point x="458" y="520"/>
      <point x="449" y="511"/>
      <point x="449" y="498" type="curve"/>
      <point x="449" y="219" type="line"/>
      <point x="449" y="112"/>
      <point x="368" y="48"/>
      <point x="293" y="48" type="curve" name="hr02" smooth="yes"/>
      <point x="218" y="48"/>
      <point x="137" y="112"/>
      <point x="137" y="219" type="curve"/>
      <point x="137" y="498" type="line"/>
      <point x="137" y="511"/>
      <point x="128" y="520"/>
      <point x="115" y="520" type="curve"/>
      <point x="98" y="520" type="line"/>
      <point x="85" y="520"/>
      <point x="76" y="511"/>
      <point x="76" y="498" type="curve"/>
      <point x="76" y="-178" type="line"/>
      <point x="76" y="-191"/>
      <point x="85" y="-200"/>
      <point x="98" y="-200" type="curve"/>
      <point x="115" y="-200" type="line"/>
      <point x="128" y="-200"/>
      <point x="137" y="-191"/>
      <point x="137" y="-178" type="curve"/>
    </contour>
  </outline>
</glyph>
<glyph name="guillemotright" format="1">
  <advance width="603"/>
  <unicode hex="00BB"/>
  <outline>
    <contour>
      <point x="494" y="329" type="line" name="hr00"/>
      <point x="325" y="165" type="line" smooth="yes"/>
      <point x="312" y="152"/>
      <point x="307" y="145"/>
      <point x="307" y="129" type="curve" smooth="yes"/>
      <point x="307" y="112" type="line" smooth="yes"/>
      <point x="307" y="100"/>
      <point x="315" y="92"/>
      <point x="327" y="92" type="curve" smooth="yes"/>
      <point x="335" y="92"/>
      <point x="343" y="97"/>
      <point x="351" y="104" type="curve" smooth="yes"/>
      <point x="539" y="286" type="line" smooth="yes"/>
      <point x="552" y="299"/>
      <point x="555" y="310"/>
      <point x="556" y="321" type="curve"/>
      <point x="556" y="337" type="line"/>
      <point x="555" y="348"/>
      <point x="552" y="359"/>
      <point x="539" y="372" type="curve" smooth="yes"/>
      <point x="351" y="554" type="line" smooth="yes"/>
      <point x="343" y="561"/>
      <point x="335" y="566"/>
      <point x="327" y="566" type="curve" smooth="yes"/>
      <point x="315" y="566"/>
      <point x="307" y="558"/>
      <point x="307" y="546" type="curve" smooth="yes"/>
      <point x="307" y="529" type="line" smooth="yes"/>
      <point x="307" y="513"/>
      <point x="312" y="506"/>
      <point x="325" y="493" type="curve" smooth="yes"/>
    </contour>
    <contour>
      <point x="245" y="329" type="line"/>
      <point x="76" y="165" type="line" smooth="yes"/>
      <point x="63" y="152"/>
      <point x="58" y="145"/>
      <point x="58" y="129" type="curve" smooth="yes"/>
      <point x="58" y="112" type="line" smooth="yes"/>
      <point x="58" y="100"/>
      <point x="66" y="92"/>
      <point x="78" y="92" type="curve" smooth="yes"/>
      <point x="86" y="92"/>
      <point x="94" y="97"/>
      <point x="102" y="104" type="curve" smooth="yes"/>
      <point x="290" y="286" type="line" smooth="yes"/>
      <point x="303" y="299"/>
      <point x="306" y="310"/>
      <point x="307" y="321" type="curve"/>
      <point x="307" y="337" type="line"/>
      <point x="306" y="348"/>
      <point x="303" y="359"/>
      <point x="290" y="372" type="curve" smooth="yes"/>
      <point x="102" y="554" type="line" smooth="yes"/>
      <point x="94" y="561"/>
      <point x="86" y="566"/>
      <point x="78" y="566" type="curve" smooth="yes"/>
      <point x="66" y="566"/>
      <point x="58" y="558"/>
      <point x="58" y="546" type="curve" smooth="yes"/>
      <point x="58" y="529" type="line" smooth="yes"/>
      <point x="58" y="513"/>
      <point x="63" y="506"/>
      <point x="76" y="493" type="curve" smooth="yes"/>
    </contour>
  </outline>
</glyph>
<glyph name="multiply" format="1">
  <advance width="541"/>
  <unicode hex="00D7"/>
  <outline>
    <contour>
      <point x="74" y="179" type="line"/>
      <point x="65" y="170"/>
      <point x="65" y="157"/>
      <point x="74" y="148" type="curve"/>
      <point x="86" y="136" type="line"/>
      <point x="95" y="127"/>
      <point x="108" y="127"/>
      <point x="117" y="136" type="curve"/>
      <point x="270" y="289" type="line"/>
      <point x="424" y="136" type="line"/>
      <point x="433" y="127"/>
      <point x="446" y="127"/>
      <point x="455" y="136" type="curve"/>
      <point x="467" y="148" type="line"/>
      <point x="476" y="157"/>
      <point x="476" y="170"/>
      <point x="467" y="179" type="curve"/>
      <point x="313" y="332" type="line"/>
      <point x="467" y="486" type="line"/>
      <point x="476" y="495"/>
      <point x="476" y="508"/>
      <point x="467" y="517" type="curve"/>
      <point x="455" y="529" type="line"/>
      <point x="446" y="538"/>
      <point x="433" y="538"/>
      <point x="424" y="529" type="curve"/>
      <point x="270" y="375" type="line"/>
      <point x="117" y="529" type="line"/>
      <point x="108" y="538"/>
      <point x="95" y="538"/>
      <point x="86" y="529" type="curve"/>
      <point x="74" y="517" type="line"/>
      <point x="65" y="508"/>
      <point x="65" y="495"/>
      <point x="74" y="486" type="curve"/>
      <point x="227" y="332" type="line"/>
    </contour>
  </outline>
</glyph>
<glyph name="germandbls" format="1">
  <advance width="568"/>
  <unicode hex="00DF"/>
  <outline>
    <contour>
      <point x="290" y="58" type="curve"/>
      <point x="225" y="58" type="line" smooth="yes"/>
      <point x="212" y="58"/>
      <point x="203" y="49"/>
      <point x="203" y="36" type="curve" smooth="yes"/>
      <point x="203" y="22" type="line" smooth="yes"/>
      <point x="203" y="9"/>
      <point x="212" y="0"/>
      <point x="225" y="0" type="curve" smooth="yes"/>
      <point x="300" y="0" type="line" smooth="yes"/>
      <point x="456" y="0"/>
      <point x="516" y="113"/>
      <point x="516" y="202" type="curve" smooth="yes"/>
      <point x="516" y="272"/>
      <point x="492" y="347"/>
      <point x="397" y="377" type="curve"/>
      <point x="437" y="395"/>
      <point x="487" y="442"/>
      <point x="487" y="528" type="curve" name="hr01" smooth="yes"/>
      <point x="487" y="613"/>
      <point x="429" y="710"/>
      <point x="284" y="710" type="curve" smooth="yes"/>
      <point x="139" y="710"/>
      <point x="82" y="611"/>
      <point x="82" y="502" type="curve" smooth="yes"/>
      <point x="82" y="22" type="line" smooth="yes"/>
      <point x="82" y="9"/>
      <point x="91" y="0"/>
      <point x="104" y="0" type="curve" smooth="yes"/>
      <point x="121" y="0" type="line" smooth="yes"/>
      <point x="134" y="0"/>
      <point x="143" y="9"/>
      <point x="143" y="22" type="curve" smooth="yes"/>
      <point x="143" y="497" type="line" smooth="yes"/>
      <point x="143" y="601"/>
      <point x="199" y="652"/>
      <point x="284" y="652" type="curve" smooth="yes"/>
      <point x="369" y="652"/>
      <point x="426" y="600"/>
      <point x="426" y="528" type="curve" smooth="yes"/>
      <point x="426" y="449"/>
      <point x="379" y="406"/>
      <point x="280" y="405" type="curve" smooth="yes"/>
      <point x="225" y="405" type="line" smooth="yes"/>
      <point x="212" y="405"/>
      <point x="203" y="396"/>
      <point x="203" y="383" type="curve" smooth="yes"/>
      <point x="203" y="369" type="line" smooth="yes"/>
      <point x="203" y="356"/>
      <point x="212" y="347"/>
      <point x="225" y="347" type="curve" smooth="yes"/>
      <point x="290" y="347" type="line" smooth="yes"/>
      <point x="399" y="347"/>
      <point x="455" y="283"/>
      <point x="455" y="202" type="curve" name="hr02" smooth="yes"/>
      <point x="455" y="122"/>
      <point x="399" y="58"/>
    </contour>
  </outline>
</glyph>
<glyph name="ccedilla" format="1">
  <advance width="536"/>
  <unicode hex="00E7"/>
  <outline>
    <contour>
      <point x="118" y="295" type="curve" name="hr00" smooth="yes"/>
      <point x="122" y="420"/>
      <point x="187" y="472"/>
      <point x="278" y="472" type="curve" smooth="yes"/>
      <point x="348" y="472"/>
      <point x="397" y="446"/>
      <point x="425" y="370" type="curve" smooth="yes"/>
      <point x="431" y="354"/>
      <point x="435" y="349"/>
      <point x="449" y="349" type="curve"/>
      <point x="463" y="349" type="line"/>
      <point x="475" y="349"/>
      <point x="486" y="358"/>
      <point x="485" y="371" type="curve" smooth="yes"/>
      <point x="482" y="443"/>
      <point x="419" y="530"/>
      <point x="278" y="530" type="curve" smooth="yes"/>
      <point x="137" y="530"/>
      <point x="61" y="443"/>
      <point x="57" y="300" type="curve" smooth="yes"/>
      <point x="56" y="280"/>
      <point x="56" y="240"/>
      <point x="57" y="220" type="curve" smooth="yes"/>
      <point x="60" y="96"/>
      <point x="118" y="14"/>
      <point x="225" y="-5" type="curve"/>
      <point x="204" y="-53" type="line"/>
      <point x="200" y="-63"/>
      <point x="192" y="-75"/>
      <point x="199" y="-83" type="curve"/>
      <point x="215" y="-100" type="line"/>
      <point x="230" y="-116"/>
      <point x="243" y="-96"/>
      <point x="275" y="-96" type="curve" smooth="yes"/>
      <point x="298" y="-96"/>
      <point x="318" y="-110"/>
      <point x="318" y="-134" type="curve" smooth="yes"/>
      <point x="318" y="-159"/>
      <point x="298" y="-174"/>
      <point x="275" y="-174" type="curve" smooth="yes"/>
      <point x="231" y="-174"/>
      <point x="224" y="-140"/>
      <point x="207" y="-156" type="curve"/>
      <point x="193" y="-169" type="line"/>
      <point x="177" y="-184"/>
      <point x="218" y="-219"/>
      <point x="275" y="-220" type="curve" smooth="yes"/>
      <point x="338" y="-221"/>
      <point x="369" y="-180"/>
      <point x="369" y="-132" type="curve" smooth="yes"/>
      <point x="369" y="-84"/>
      <point x="337" y="-50"/>
      <point x="293" y="-50" type="curve" smooth="yes"/>
      <point x="278" y="-50"/>
      <point x="263" y="-53"/>
      <point x="255" y="-58" type="curve"/>
      <point x="278" y="-10" type="line"/>
      <point x="419" y="-10"/>
      <point x="482" y="77"/>
      <point x="485" y="149" type="curve" smooth="yes"/>
      <point x="486" y="162"/>
      <point x="475" y="171"/>
      <point x="463" y="171" type="curve"/>
      <point x="449" y="171" type="line"/>
      <point x="435" y="171"/>
      <point x="431" y="166"/>
      <point x="425" y="150" type="curve" smooth="yes"/>
      <point x="397" y="74"/>
      <point x="348" y="48"/>
      <point x="278" y="48" type="curve" smooth="yes"/>
      <point x="187" y="48"/>
      <point x="122" y="100"/>
      <point x="118" y="225" type="curve" smooth="yes"/>
      <point x="117" y="245"/>
      <point x="117" y="275"/>
    </contour>
  </outline>
</glyph>
<glyph name="Eogonek" format="1">
  <advance width="592"/>
  <unicode hex="0118"/>
  <outline>
    <contour>
      <point x="157" y="60" type="line"/>
      <point x="157" y="325" type="line"/>
      <point x="484" y="325" type="line" smooth="yes"/>
      <point x="498" y="325"/>
      <point x="507" y="334"/>
      <point x="507" y="347" type="curve" smooth="yes"/>
      <point x="507" y="362" type="line" smooth="yes"/>
      <point x="507" y="376"/>
      <point x="498" y="385"/>
      <point x="484" y="385" type="curve" smooth="yes"/>
      <point x="157" y="385" type="line"/>
      <point x="157" y="640" type="line"/>
      <point x="506" y="640" type="line" smooth="yes"/>
      <point x="520" y="640"/>
      <point x="529" y="649"/>
      <point x="529" y="662" type="curve" smooth="yes"/>
      <point x="529" y="677" type="line" smooth="yes"/>
      <point x="529" y="691"/>
      <point x="520" y="700"/>
      <point x="506" y="700" type="curve" smooth="yes"/>
      <point x="116" y="700" type="line" smooth="yes"/>
      <point x="103" y="700"/>
      <point x="94" y="691"/>
      <point x="94" y="677" type="curve" smooth="yes"/>
      <point x="94" y="22" type="line" smooth="yes"/>
      <point x="94" y="9"/>
      <point x="103" y="0"/>
      <point x="116" y="0" type="curve" smooth="yes"/>
      <point x="385" y="0" type="line"/>
      <point x="371" y="-22"/>
      <point x="364" y="-50"/>
      <point x="364" y="-82" type="curve" smooth="yes"/>
      <point x="364" y="-167"/>
      <point x="415" y="-220"/>
      <point x="496" y="-220" type="curve" smooth="yes"/>
      <point x="515" y="-220" type="line" smooth="yes"/>
      <point x="528" y="-220"/>
      <point x="537" y="-211"/>
      <point x="537" y="-198" type="curve" smooth="yes"/>
      <point x="537" y="-185" type="line" smooth="yes"/>
      <point x="537" y="-172"/>
      <point x="528" y="-163"/>
      <point x="515" y="-163" type="curve" smooth="yes"/>
      <point x="500" y="-163" type="line" smooth="yes"/>
      <point x="456" y="-163"/>
      <point x="424" y="-133"/>
      <point x="424" y="-82" type="curve" name="hr01" smooth="yes"/>
      <point x="424" y="-33"/>
      <point x="453" y="-3"/>
      <point x="493" y="0" type="curve"/>
      <point x="514" y="0" type="line" smooth="yes"/>
      <point x="528" y="0"/>
      <point x="537" y="9"/>
      <point x="537" y="22" type="curve" smooth="yes"/>
      <point x="537" y="37" type="line" smooth="yes"/>
      <point x="537" y="51"/>
      <point x="528" y="60"/>
      <point x="514" y="60" type="curve" smooth="yes"/>
    </contour>
  </outline>
</glyph>
<glyph name="eogonek" format="1">
  <advance width="547"/>
  <unicode hex="0119"/>
  <outline>
    <contour>
      <point x="56" y="300" type="curve" name="hr00" smooth="yes"/>
      <point x="55" y="280"/>
      <point x="55" y="240"/>
      <point x="56" y="220" type="curve" smooth="yes"/>
      <point x="64" y="106"/>
      <point x="120" y="23"/>
      <point x="213" y="-2" type="curve"/>
      <point x="200" y="-23"/>
      <point x="194" y="-51"/>
      <point x="194" y="-82" type="curve" smooth="yes"/>
      <point x="194" y="-167"/>
      <point x="245" y="-220"/>
      <point x="326" y="-220" type="curve" smooth="yes"/>
      <point x="345" y="-220" type="line" smooth="yes"/>
      <point x="358" y="-220"/>
      <point x="367" y="-211"/>
      <point x="367" y="-198" type="curve" smooth="yes"/>
      <point x="367" y="-185" type="line" smooth="yes"/>
      <point x="367" y="-172"/>
      <point x="358" y="-163"/>
      <point x="345" y="-163" type="curve" smooth="yes"/>
      <point x="330" y="-163" type="line" smooth="yes"/>
      <point x="286" y="-163"/>
      <point x="254" y="-133"/>
      <point x="254" y="-82" type="curve" smooth="yes"/>
      <point x="254" y="-35"/>
      <point x="280" y="-14"/>
      <point x="320" y="-6" type="curve" smooth="yes"/>
      <point x="418" y="14"/>
      <point x="479" y="77"/>
      <point x="481" y="111" type="curve" smooth="yes"/>
      <point x="482" y="123"/>
      <point x="472" y="131"/>
      <point x="460" y="131" type="curve" smooth="yes"/>
      <point x="444" y="131" type="line" smooth="yes"/>
      <point x="429" y="131"/>
      <point x="426" y="130"/>
      <point x="414" y="113" type="curve" smooth="yes"/>
      <point x="403" y="97"/>
      <point x="360" y="48"/>
      <point x="275" y="48" type="curve" smooth="yes"/>
      <point x="178" y="48"/>
      <point x="121" y="134"/>
      <point x="117" y="225" type="curve" smooth="yes"/>
      <point x="117" y="235" type="line"/>
      <point x="473" y="235" type="line" smooth="yes"/>
      <point x="486" y="235"/>
      <point x="496" y="244"/>
      <point x="496" y="257" type="curve" smooth="yes"/>
      <point x="496" y="272" type="line" smooth="yes"/>
      <point x="496" y="432"/>
      <point x="414" y="530"/>
      <point x="275" y="530" type="curve" smooth="yes"/>
      <point x="145" y="530"/>
      <point x="66" y="436"/>
    </contour>
    <contour>
      <point x="117" y="295" type="line" smooth="yes"/>
      <point x="117" y="395"/>
      <point x="175" y="472"/>
      <point x="275" y="472" type="curve" smooth="yes"/>
      <point x="375" y="472"/>
      <point x="435" y="395"/>
      <point x="435" y="295" type="curve" smooth="yes"/>
      <point x="435" y="291" type="line"/>
      <point x="117" y="291" type="line"/>
    </contour>
  </outline>
</glyph>
<glyph name="Iogonek" format="1">
  <advance width="269"/>
  <unicode hex="012E"/>
  <outline>
    <contour>
      <point x="175" y="678" type="line" smooth="yes"/>
      <point x="175" y="691"/>
      <point x="166" y="700"/>
      <point x="153" y="700" type="curve" smooth="yes"/>
      <point x="134" y="700" type="line" smooth="yes"/>
      <point x="121" y="700"/>
      <point x="112" y="691"/>
      <point x="112" y="678" type="curve" smooth="yes"/>
      <point x="112" y="55" type="line"/>
      <point x="44" y="46"/>
      <point x="2" y="-5"/>
      <point x="2" y="-82" type="curve" smooth="yes"/>
      <point x="2" y="-167"/>
      <point x="53" y="-220"/>
      <point x="134" y="-220" type="curve" smooth="yes"/>
      <point x="153" y="-220" type="line" smooth="yes"/>
      <point x="166" y="-220"/>
      <point x="175" y="-211"/>
      <point x="175" y="-198" type="curve" smooth="yes"/>
      <point x="175" y="-185" type="line" smooth="yes"/>
      <point x="175" y="-172"/>
      <point x="166" y="-163"/>
      <point x="153" y="-163" type="curve" smooth="yes"/>
      <point x="138" y="-163" type="line" smooth="yes"/>
      <point x="94" y="-163"/>
      <point x="62" y="-133"/>
      <point x="62" y="-82" type="curve" smooth="yes"/>
      <point x="62" y="-31"/>
      <point x="94" y="0"/>
      <point x="138" y="0" type="curve" name="hr01" smooth="yes"/>
      <point x="153" y="0" type="line" smooth="yes"/>
      <point x="166" y="0"/>
      <point x="175" y="9"/>
      <point x="175" y="22" type="curve" smooth="yes"/>
    </contour>
  </outline>
</glyph>
<glyph name="eng" format="1">
  <advance width="590"/>
  <unicode hex="014B"/>
  <outline>
    <contour>
      <point x="514" y="306" type="line"/>
      <point x="514" y="433"/>
      <point x="446" y="530"/>
      <point x="310" y="530" type="curve" smooth="yes"/>
      <point x="224" y="530"/>
      <point x="178" y="498"/>
      <point x="142" y="451" type="curve"/>
      <point x="142" y="498" type="line"/>
      <point x="142" y="511"/>
      <point x="133" y="520"/>
      <point x="120" y="520" type="curve" name="hr01"/>
      <point x="103" y="520" type="line"/>
      <point x="90" y="520"/>
      <point x="81" y="511"/>
      <point x="81" y="498" type="curve"/>
      <point x="81" y="22" type="line"/>
      <point x="81" y="9"/>
      <point x="90" y="0"/>
      <point x="103" y="0" type="curve"/>
      <point x="120" y="0" type="line"/>
      <point x="133" y="0"/>
      <point x="142" y="9"/>
      <point x="142" y="22" type="curve"/>
      <point x="142" y="301" type="line"/>
      <point x="142" y="408"/>
      <point x="205" y="472"/>
      <point x="300" y="472" type="curve" name="hr02" smooth="yes"/>
      <point x="400" y="472"/>
      <point x="453" y="407"/>
      <point x="453" y="301" type="curve"/>
      <point x="453" y="-57" type="line"/>
      <point x="453" y="-118"/>
      <point x="444" y="-167"/>
      <point x="363" y="-167" type="curve"/>
      <point x="359" y="-167" type="line"/>
      <point x="346" y="-167"/>
      <point x="337" y="-176"/>
      <point x="337" y="-189" type="curve"/>
      <point x="337" y="-203" type="line"/>
      <point x="337" y="-216"/>
      <point x="346" y="-225"/>
      <point x="359" y="-225" type="curve"/>
      <point x="363" y="-225" type="line"/>
      <point x="485" y="-225"/>
      <point x="514" y="-151"/>
      <point x="514" y="-57" type="curve"/>
    </contour>
  </outline>
</glyph>
<glyph name="Tbar" format="1">
  <advance width="567"/>
  <unicode hex="0166"/>
  <outline>
    <contour>
      <point x="134" y="410" type="line" name="hr00" smooth="yes"/>
      <point x="121" y="410"/>
      <point x="112" y="401"/>
      <point x="112" y="387" type="curve" smooth="yes"/>
      <point x="112" y="372" type="line" smooth="yes"/>
      <point x="112" y="359"/>
      <point x="121" y="350"/>
      <point x="134" y="350" type="curve" smooth="yes"/>
      <point x="252" y="350" type="line"/>
      <point x="252" y="22" type="line" smooth="yes"/>
      <point x="252" y="9"/>
      <point x="261" y="0"/>
      <point x="274" y="0" type="curve" smooth="yes"/>
      <point x="292" y="0" type="line" smooth="yes"/>
      <point x="306" y="0"/>
      <point x="315" y="9"/>
      <point x="315" y="22" type="curve" smooth="yes"/>
      <point x="315" y="350" type="line"/>
      <point x="432" y="350" type="line" smooth="yes"/>
      <point x="446" y="350"/>
      <point x="455" y="359"/>
      <point x="455" y="372" type="curve" smooth="yes"/>
      <point x="455" y="387" type="line" smooth="yes"/>
      <point x="455" y="401"/>
      <point x="446" y="410"/>
      <point x="432" y="410" type="curve" smooth="yes"/>
      <point x="315" y="410" type="line"/>
      <point x="315" y="640" type="line"/>
      <point x="512" y="640" type="line" smooth="yes"/>
      <point x="526" y="640"/>
      <point x="535" y="649"/>
      <point x="535" y="662" type="curve" smooth="yes"/>
      <point x="535" y="677" type="line" smooth="yes"/>
      <point x="535" y="691"/>
      <point x="526" y="700"/>
      <point x="512" y="700" type="curve" smooth="yes"/>
      <point x="54" y="700" type="line" smooth="yes"/>
      <point x="41" y="700"/>
      <point x="32" y="691"/>
      <point x="32" y="677" type="curve" smooth="yes"/>
      <point x="32" y="662" type="line" smooth="yes"/>
      <point x="32" y="649"/>
      <point x="41" y="640"/>
      <point x="54" y="640" type="curve" smooth="yes"/>
      <point x="252" y="640" type="line"/>
      <point x="252" y="410" type="line"/>
    </contour>
  </outline>
</glyph>
<glyph name="ring" format="1">
  <advance width="300"/>
  <unicode hex="02DA"/>
  <outline>
    <contour>
      <point x="120" y="665" type="curve" name="hr00" smooth="yes"/>
      <point x="120" y="682"/>
      <point x="133" y="695"/>
      <point x="150" y="695" type="curve" smooth="yes"/>
      <point x="167" y="695"/>
      <point x="180" y="682"/>
      <point x="180" y="665" type="curve" smooth="yes"/>
      <point x="180" y="648"/>
      <point x="167" y="635"/>
      <point x="150" y="635" type="curve" smooth="yes"/>
      <point x="133" y="635"/>
      <point x="120" y="648"/>
    </contour>
    <contour>
      <point x="70" y="665" type="curve" smooth="yes"/>
      <point x="70" y="621"/>
      <point x="106" y="590"/>
      <point x="150" y="590" type="curve" smooth="yes"/>
      <point x="194" y="590"/>
      <point x="230" y="621"/>
      <point x="230" y="665" type="curve" smooth="yes"/>
      <point x="230" y="709"/>
      <point x="194" y="740"/>
      <point x="150" y="740" type="curve" smooth="yes"/>
      <point x="106" y="740"/>
      <point x="70" y="709"/>
    </contour>
  </outline>
</glyph>
<glyph name="tilde" format="1">
  <advance width="379"/>
  <unicode hex="02DC"/>
  <outline>
    <contour>
      <point x="70" y="611" type="curve" smooth="yes"/>
      <point x="70" y="603"/>
      <point x="76" y="595"/>
      <point x="86" y="595" type="curve" smooth="yes"/>
      <point x="106" y="595" type="line" smooth="yes"/>
      <point x="127" y="595"/>
      <point x="124" y="624"/>
      <point x="147" y="624" type="curve" smooth="yes"/>
      <point x="175" y="624"/>
      <point x="191" y="590"/>
      <point x="237" y="590" type="curve" name="hr01" smooth="yes"/>
      <point x="277" y="590"/>
      <point x="309" y="626"/>
      <point x="309" y="664" type="curve" smooth="yes"/>
      <point x="309" y="672"/>
      <point x="303" y="680"/>
      <point x="293" y="680" type="curve" smooth="yes"/>
      <point x="273" y="680" type="line" smooth="yes"/>
      <point x="251" y="680"/>
      <point x="256" y="650"/>
      <point x="232" y="650" type="curve" smooth="yes"/>
      <point x="203" y="650"/>
      <point x="188" y="684"/>
      <point x="141" y="684" type="curve" name="hr02" smooth="yes"/>
      <point x="100" y="684"/>
      <point x="70" y="649"/>
    </contour>
  </outline>
</glyph>
<glyph name="afii10145" format="1">
  <advance width="641"/>
  <unicode hex="040F"/>
  <outline>
    <contour>
      <point x="311" y="-110" type="curve" name="hr00"/>
      <point x="329" y="-110" type="line" smooth="yes"/>
      <point x="343" y="-110"/>
      <point x="352" y="-101"/>
      <point x="352" y="-88" type="curve" smooth="yes"/>
      <point x="352" y="0" type="line"/>
      <point x="524" y="0" type="line" smooth="yes"/>
      <point x="538" y="0"/>
      <point x="547" y="9"/>
      <point x="547" y="22" type="curve" smooth="yes"/>
      <point x="547" y="678" type="line" smooth="yes"/>
      <point x="547" y="691"/>
      <point x="538" y="700"/>
      <point x="524" y="700" type="curve" smooth="yes"/>
      <point x="506" y="700" type="line" smooth="yes"/>
      <point x="493" y="700"/>
      <point x="484" y="691"/>
      <point x="484" y="678" type="curve" smooth="yes"/>
      <point x="484" y="60" type="line"/>
      <point x="157" y="60" type="line"/>
      <point x="157" y="678" type="line" smooth="yes"/>
      <point x="157" y="691"/>
      <point x="148" y="700"/>
      <point x="134" y="700" type="curve" smooth="yes"/>
      <point x="116" y="700" type="line" smooth="yes"/>
      <point x="103" y="700"/>
      <point x="94" y="691"/>
      <point x="94" y="678" type="curve" smooth="yes"/>
      <point x="94" y="22" type="line" smooth="yes"/>
      <point x="94" y="9"/>
      <point x="103" y="0"/>
      <point x="116" y="0" type="curve" smooth="yes"/>
      <point x="289" y="0" type="line"/>
      <point x="289" y="-88" type="line" smooth="yes"/>
      <point x="289" y="-101"/>
      <point x="298" y="-110"/>
    </contour>
  </outline>
</glyph>
<glyph name="afii10029" format="1">
  <advance width="676"/>
  <unicode hex="041B"/>
  <outline>
    <contour>
      <point x="173" y="700" type="line" smooth="yes"/>
      <point x="160" y="700"/>
      <point x="151" y="691"/>
      <point x="151" y="677" type="curve" smooth="yes"/>
      <point x="151" y="173" type="line" smooth="yes"/>
      <point x="151" y="79"/>
      <point x="111" y="50"/>
      <point x="47" y="50" type="curve" smooth="yes"/>
      <point x="36" y="50" type="line" smooth="yes"/>
      <point x="23" y="50"/>
      <point x="14" y="41"/>
      <point x="14" y="27" type="curve" smooth="yes"/>
      <point x="14" y="12" type="line" smooth="yes"/>
      <point x="14" y="-1"/>
      <point x="23" y="-10"/>
      <point x="36" y="-10" type="curve" smooth="yes"/>
      <point x="54" y="-10" type="line" smooth="yes"/>
      <point x="178" y="-10"/>
      <point x="214" y="86"/>
      <point x="214" y="173" type="curve" smooth="yes"/>
      <point x="214" y="640" type="line"/>
      <point x="519" y="640" type="line"/>
      <point x="519" y="22" type="line" smooth="yes"/>
      <point x="519" y="9"/>
      <point x="528" y="0"/>
      <point x="541" y="0" type="curve" name="hr01" smooth="yes"/>
      <point x="559" y="0" type="line" smooth="yes"/>
      <point x="573" y="0"/>
      <point x="582" y="9"/>
      <point x="582" y="22" type="curve" smooth="yes"/>
      <point x="582" y="677" type="line" smooth="yes"/>
      <point x="582" y="691"/>
      <point x="573" y="700"/>
      <point x="559" y="700" type="curve" smooth="yes"/>
    </contour>
  </outline>
</glyph>
<glyph name="afii10038" format="1">
  <advance width="729"/>
  <unicode hex="0424"/>
  <outline>
    <contour>
      <point x="355" y="-20" type="curve" name="hr00"/>
      <point x="373" y="-20" type="line" smooth="yes"/>
      <point x="387" y="-20"/>
      <point x="396" y="-11"/>
      <point x="396" y="2" type="curve" smooth="yes"/>
      <point x="396" y="105" type="line"/>
      <point x="528" y="110"/>
      <point x="694" y="183"/>
      <point x="694" y="350" type="curve" smooth="yes"/>
      <point x="694" y="517"/>
      <point x="528" y="590"/>
      <point x="396" y="595" type="curve"/>
      <point x="396" y="698" type="line" smooth="yes"/>
      <point x="396" y="711"/>
      <point x="387" y="720"/>
      <point x="373" y="720" type="curve" smooth="yes"/>
      <point x="355" y="720" type="line" smooth="yes"/>
      <point x="342" y="720"/>
      <point x="333" y="711"/>
      <point x="333" y="698" type="curve" smooth="yes"/>
      <point x="333" y="595" type="line"/>
      <point x="201" y="590"/>
      <point x="35" y="517"/>
      <point x="35" y="350" type="curve" smooth="yes"/>
      <point x="35" y="183"/>
      <point x="201" y="110"/>
      <point x="333" y="105" type="curve"/>
      <point x="333" y="2" type="line" smooth="yes"/>
      <point x="333" y="-11"/>
      <point x="342" y="-20"/>
    </contour>
    <contour>
      <point x="631" y="350" type="curve" smooth="yes"/>
      <point x="631" y="231"/>
      <point x="513" y="169"/>
      <point x="396" y="165" type="curve"/>
      <point x="396" y="535" type="line"/>
      <point x="513" y="532"/>
      <point x="631" y="469"/>
    </contour>
    <contour>
      <point x="333" y="535" type="curve"/>
      <point x="333" y="165" type="line"/>
      <point x="216" y="169"/>
      <point x="98" y="231"/>
      <point x="98" y="350" type="curve" smooth="yes"/>
      <point x="98" y="469"/>
      <point x="216" y="531"/>
    </contour>
  </outline>
</glyph>
<glyph name="afii10042" format="1">
  <advance width="865"/>
  <unicode hex="0428"/>
  <outline>
    <contour>
      <point x="423" y="700" type="line" name="hr00"/>
      <point x="410" y="700"/>
      <point x="401" y="691"/>
      <point x="401" y="678" type="curve" smooth="yes"/>
      <point x="401" y="60" type="line"/>
      <point x="157" y="60" type="line"/>
      <point x="157" y="678" type="line" smooth="yes"/>
      <point x="157" y="691"/>
      <point x="148" y="700"/>
      <point x="134" y="700" type="curve" smooth="yes"/>
      <point x="116" y="700" type="line" smooth="yes"/>
      <point x="103" y="700"/>
      <point x="94" y="691"/>
      <point x="94" y="678" type="curve" smooth="yes"/>
      <point x="94" y="22" type="line" smooth="yes"/>
      <point x="94" y="9"/>
      <point x="103" y="0"/>
      <point x="116" y="0" type="curve" smooth="yes"/>
      <point x="748" y="0" type="line" smooth="yes"/>
      <point x="762" y="0"/>
      <point x="771" y="9"/>
      <point x="771" y="22" type="curve" smooth="yes"/>
      <point x="771" y="678" type="line" smooth="yes"/>
      <point x="771" y="691"/>
      <point x="762" y="700"/>
      <point x="748" y="700" type="curve" smooth="yes"/>
      <point x="730" y="700" type="line" smooth="yes"/>
      <point x="717" y="700"/>
      <point x="708" y="691"/>
      <point x="708" y="678" type="curve" smooth="yes"/>
      <point x="708" y="60" type="line"/>
      <point x="464" y="60" type="line"/>
      <point x="464" y="678" type="line" smooth="yes"/>
      <point x="464" y="691"/>
      <point x="455" y="700"/>
      <point x="441" y="700" type="curve" smooth="yes"/>
    </contour>
  </outline>
</glyph>
<glyph name="afii10066" format="1">
  <advance width="544"/>
  <unicode hex="0431"/>
  <outline>
    <contour>
      <point x="55" y="231" type="line" name="hr00"/>
      <point x="55" y="94"/>
      <point x="130" y="-10"/>
      <point x="274" y="-10" type="curve" smooth="yes"/>
      <point x="418" y="-10"/>
      <point x="493" y="94"/>
      <point x="493" y="231" type="curve" smooth="yes"/>
      <point x="493" y="368"/>
      <point x="418" y="470"/>
      <point x="274" y="470" type="curve" smooth="yes"/>
      <point x="247" y="470"/>
      <point x="222" y="466"/>
      <point x="200" y="459" type="curve"/>
      <point x="277" y="555"/>
      <point x="381" y="613"/>
      <point x="381" y="708" type="curve" smooth="yes"/>
      <point x="381" y="721"/>
      <point x="372" y="730"/>
      <point x="359" y="730" type="curve"/>
      <point x="342" y="730" type="line"/>
      <point x="329" y="730"/>
      <point x="320" y="721"/>
      <point x="320" y="708" type="curve" smooth="yes"/>
      <point x="320" y="598"/>
      <point x="55" y="525"/>
      <point x="55" y="251" type="curve"/>
    </contour>
    <contour>
      <point x="116" y="231" type="curve"/>
      <point x="116" y="243" type="line"/>
      <point x="120" y="338"/>
      <point x="173" y="412"/>
      <point x="274" y="412" type="curve" smooth="yes"/>
      <point x="379" y="412"/>
      <point x="432" y="332"/>
      <point x="432" y="231" type="curve" smooth="yes"/>
      <point x="432" y="130"/>
      <point x="379" y="48"/>
      <point x="274" y="48" type="curve" smooth="yes"/>
      <point x="169" y="48"/>
      <point x="116" y="130"/>
    </contour>
  </outline>
</glyph>
<glyph name="afii10067" format="1">
  <advance width="571"/>
  <unicode hex="0432"/>
  <outline>
    <contour>
      <point x="81" y="498" type="curve" name="hr00"/>
      <point x="81" y="22" type="line" smooth="yes"/>
      <point x="81" y="9"/>
      <point x="90" y="0"/>
      <point x="103" y="0" type="curve" smooth="yes"/>
      <point x="335" y="0" type="line" smooth="yes"/>
      <point x="442" y="0"/>
      <point x="512" y="50"/>
      <point x="512" y="145" type="curve" smooth="yes"/>
      <point x="512" y="196"/>
      <point x="504" y="236"/>
      <point x="447" y="274" type="curve"/>
      <point x="476" y="297"/>
      <point x="502" y="320"/>
      <point x="502" y="384" type="curve" smooth="yes"/>
      <point x="502" y="466"/>
      <point x="440" y="520"/>
      <point x="330" y="520" type="curve" smooth="yes"/>
      <point x="103" y="520" type="line" smooth="yes"/>
      <point x="90" y="520"/>
      <point x="81" y="511"/>
    </contour>
    <contour>
      <point x="327" y="233" type="line" smooth="yes"/>
      <point x="410" y="233"/>
      <point x="451" y="206"/>
      <point x="451" y="145" type="curve" smooth="yes"/>
      <point x="451" y="87"/>
      <point x="400" y="58"/>
      <point x="327" y="58" type="curve" smooth="yes"/>
      <point x="142" y="58" type="line"/>
      <point x="142" y="233" type="line"/>
    </contour>
    <contour>
      <point x="320" y="462" type="line" smooth="yes"/>
      <point x="393" y="462"/>
      <point x="441" y="442"/>
      <point x="441" y="384" type="curve" smooth="yes"/>
      <point x="441" y="326"/>
      <point x="393" y="291"/>
      <point x="320" y="291" type="curve" smooth="yes"/>
      <point x="142" y="291" type="line"/>
      <point x="142" y="462" type="line"/>
    </contour>
  </outline>
</glyph>
<glyph name="afii10072" format="1">
  <advance width="557"/>
  <unicode hex="0436"/>
  <outline>
    <contour>
      <point x="472" y="520" type="line" name="hr00"/>
      <point x="459" y="520"/>
      <point x="453" y="512"/>
      <point x="447" y="505" type="curve"/>
      <point x="309" y="327" type="line"/>
      <point x="309" y="498" type="line"/>
      <point x="309" y="511"/>
      <point x="300" y="520"/>
      <point x="287" y="520" type="curve"/>
      <point x="270" y="520" type="line"/>
      <point x="257" y="520"/>
      <point x="248" y="511"/>
      <point x="248" y="498" type="curve"/>
      <point x="248" y="327" type="line"/>
      <point x="110" y="505" type="line"/>
      <point x="104" y="512"/>
      <point x="98" y="520"/>
      <point x="85" y="520" type="curve"/>
      <point x="64" y="520" type="line"/>
      <point x="53" y="520"/>
      <point x="44" y="511"/>
      <point x="44" y="500" type="curve" smooth="yes"/>
      <point x="44" y="495"/>
      <point x="45" y="489"/>
      <point x="52" y="480" type="curve"/>
      <point x="219" y="266" type="line"/>
      <point x="43" y="40" type="line"/>
      <point x="36" y="31"/>
      <point x="35" y="25"/>
      <point x="35" y="20" type="curve" smooth="yes"/>
      <point x="35" y="9"/>
      <point x="44" y="0"/>
      <point x="55" y="0" type="curve"/>
      <point x="75" y="0" type="line"/>
      <point x="88" y="0"/>
      <point x="94" y="8"/>
      <point x="100" y="15" type="curve"/>
      <point x="248" y="204" type="line"/>
      <point x="248" y="22" type="line"/>
      <point x="248" y="9"/>
      <point x="257" y="0"/>
      <point x="270" y="0" type="curve"/>
      <point x="287" y="0" type="line"/>
      <point x="300" y="0"/>
      <point x="309" y="9"/>
      <point x="309" y="22" type="curve"/>
      <point x="309" y="204" type="line"/>
      <point x="457" y="15" type="line"/>
      <point x="463" y="8"/>
      <point x="469" y="0"/>
      <point x="482" y="0" type="curve"/>
      <point x="502" y="0" type="line"/>
      <point x="513" y="0"/>
      <point x="522" y="9"/>
      <point x="522" y="20" type="curve" smooth="yes"/>
      <point x="522" y="25"/>
      <point x="521" y="31"/>
      <point x="514" y="40" type="curve"/>
      <point x="338" y="266" type="line"/>
      <point x="505" y="480" type="line"/>
      <point x="512" y="489"/>
      <point x="513" y="495"/>
      <point x="513" y="500" type="curve" smooth="yes"/>
      <point x="513" y="511"/>
      <point x="504" y="520"/>
      <point x="493" y="520" type="curve"/>
    </contour>
  </outline>
</glyph>
<glyph name="afii10077" format="1">
  <advance width="595"/>
  <unicode hex="043B"/>
  <outline>
    <contour>
      <point x="135" y="158" type="line" smooth="yes"/>
      <point x="135" y="97"/>
      <point x="125" y="48"/>
      <point x="55" y="48" type="curve" smooth="yes"/>
      <point x="40" y="48" type="line" smooth="yes"/>
      <point x="27" y="48"/>
      <point x="18" y="39"/>
      <point x="18" y="26" type="curve" smooth="yes"/>
      <point x="18" y="12" type="line" smooth="yes"/>
      <point x="18" y="-1"/>
      <point x="27" y="-10"/>
      <point x="40" y="-10" type="curve" smooth="yes"/>
      <point x="60" y="-10" type="line" smooth="yes"/>
      <point x="175" y="-10"/>
      <point x="196" y="65"/>
      <point x="196" y="159" type="curve" smooth="yes"/>
      <point x="196" y="462" type="line"/>
      <point x="453" y="462" type="line"/>
      <point x="453" y="22" type="line" smooth="yes"/>
      <point x="453" y="9"/>
      <point x="462" y="0"/>
      <point x="475" y="0" type="curve" name="hr01" smooth="yes"/>
      <point x="492" y="0" type="line" smooth="yes"/>
      <point x="505" y="0"/>
      <point x="514" y="9"/>
      <point x="514" y="22" type="curve" smooth="yes"/>
      <point x="514" y="498" type="line" smooth="yes"/>
      <point x="514" y="511"/>
      <point x="505" y="520"/>
      <point x="492" y="520" type="curve" smooth="yes"/>
      <point x="157" y="520" type="line" smooth="yes"/>
      <point x="144" y="520"/>
      <point x="135" y="511"/>
      <point x="135" y="498" type="curve" smooth="yes"/>
    </contour>
  </outline>
</glyph>
<glyph name="afii10084" format="1">
  <advance width="497"/>
  <unicode hex="0442"/>
  <outline>
    <contour>
      <point x="240" y="0" type="curve" name="hr00"/>
      <point x="257" y="0" type="line" smooth="yes"/>
      <point x="270" y="0"/>
      <point x="279" y="9"/>
      <point x="279" y="22" type="curve" smooth="yes"/>
      <point x="279" y="462" type="line"/>
      <point x="462" y="462" type="line" smooth="yes"/>
      <point x="475" y="462"/>
      <point x="484" y="471"/>
      <point x="484" y="484" type="curve" smooth="yes"/>
      <point x="484" y="498" type="line" smooth="yes"/>
      <point x="484" y="511"/>
      <point x="475" y="520"/>
      <point x="462" y="520" type="curve" smooth="yes"/>
      <point x="35" y="520" type="line" smooth="yes"/>
      <point x="22" y="520"/>
      <point x="13" y="511"/>
      <point x="13" y="498" type="curve" smooth="yes"/>
      <point x="13" y="484" type="line" smooth="yes"/>
      <point x="13" y="471"/>
      <point x="22" y="462"/>
      <point x="35" y="462" type="curve" smooth="yes"/>
      <point x="218" y="462" type="line"/>
      <point x="218" y="22" type="line" smooth="yes"/>
      <point x="218" y="9"/>
      <point x="227" y="0"/>
    </contour>
  </outline>
</glyph>
<glyph name="afii10086" format="1">
  <advance width="879"/>
  <unicode hex="0444"/>
  <outline>
    <contour>
      <point x="251" y="-10" type="curve" name="hr00" smooth="yes"/>
      <point x="324" y="-10"/>
      <point x="376" y="25"/>
      <point x="409" y="69" type="curve"/>
      <point x="409" y="-168" type="line" smooth="yes"/>
      <point x="409" y="-181"/>
      <point x="418" y="-190"/>
      <point x="431" y="-190" type="curve" smooth="yes"/>
      <point x="448" y="-190" type="line" smooth="yes"/>
      <point x="461" y="-190"/>
      <point x="470" y="-181"/>
      <point x="470" y="-168" type="curve" smooth="yes"/>
      <point x="470" y="69" type="line"/>
      <point x="503" y="25"/>
      <point x="555" y="-10"/>
      <point x="628" y="-10" type="curve" smooth="yes"/>
      <point x="774" y="-10"/>
      <point x="818" y="110"/>
      <point x="822" y="227" type="curve" smooth="yes"/>
      <point x="823" y="247"/>
      <point x="823" y="273"/>
      <point x="822" y="293" type="curve" smooth="yes"/>
      <point x="818" y="410"/>
      <point x="774" y="530"/>
      <point x="628" y="530" type="curve" smooth="yes"/>
      <point x="555" y="530"/>
      <point x="503" y="496"/>
      <point x="470" y="451" type="curve"/>
      <point x="470" y="688" type="line" smooth="yes"/>
      <point x="470" y="701"/>
      <point x="461" y="710"/>
      <point x="448" y="710" type="curve" smooth="yes"/>
      <point x="431" y="710" type="line" smooth="yes"/>
      <point x="418" y="710"/>
      <point x="409" y="701"/>
      <point x="409" y="688" type="curve" smooth="yes"/>
      <point x="409" y="451" type="line"/>
      <point x="376" y="496"/>
      <point x="324" y="530"/>
      <point x="251" y="530" type="curve" smooth="yes"/>
      <point x="105" y="530"/>
      <point x="61" y="410"/>
      <point x="57" y="293" type="curve" smooth="yes"/>
      <point x="56" y="273"/>
      <point x="56" y="247"/>
      <point x="57" y="227" type="curve" smooth="yes"/>
      <point x="61" y="110"/>
      <point x="105" y="-10"/>
    </contour>
    <contour>
      <point x="409" y="296" type="curve" smooth="yes"/>
      <point x="410" y="276"/>
      <point x="410" y="238"/>
      <point x="409" y="218" type="curve" smooth="yes"/>
      <point x="407" y="138"/>
      <point x="358" y="48"/>
      <point x="257" y="48" type="curve" smooth="yes"/>
      <point x="160" y="48"/>
      <point x="122" y="136"/>
      <point x="118" y="232" type="curve" smooth="yes"/>
      <point x="117" y="252"/>
      <point x="117" y="268"/>
      <point x="118" y="288" type="curve" smooth="yes"/>
      <point x="122" y="384"/>
      <point x="160" y="472"/>
      <point x="257" y="472" type="curve" smooth="yes"/>
      <point x="361" y="472"/>
      <point x="406" y="378"/>
    </contour>
    <contour>
      <point x="470" y="296" type="curve" smooth="yes"/>
      <point x="473" y="378"/>
      <point x="518" y="472"/>
      <point x="622" y="472" type="curve" smooth="yes"/>
      <point x="719" y="472"/>
      <point x="757" y="384"/>
      <point x="761" y="288" type="curve" smooth="yes"/>
      <point x="762" y="268"/>
      <point x="762" y="252"/>
      <point x="761" y="232" type="curve" smooth="yes"/>
      <point x="757" y="136"/>
      <point x="719" y="48"/>
      <point x="622" y="48" type="curve" smooth="yes"/>
      <point x="521" y="48"/>
      <point x="472" y="138"/>
      <point x="470" y="218" type="curve" smooth="yes"/>
      <point x="469" y="238"/>
      <point x="469" y="276"/>
    </contour>
  </outline>
</glyph>
<glyph name="afii10088" format="1">
  <advance width="606"/>
  <unicode hex="0446"/>
  <outline>
    <contour>
      <point x="142" y="498" type="line"/>
      <point x="142" y="511"/>
      <point x="133" y="520"/>
      <point x="120" y="520" type="curve" smooth="yes"/>
      <point x="103" y="520" type="line" smooth="yes"/>
      <point x="90" y="520"/>
      <point x="81" y="511"/>
      <point x="81" y="498" type="curve" smooth="yes"/>
      <point x="81" y="22" type="line" smooth="yes"/>
      <point x="81" y="9"/>
      <point x="90" y="0"/>
      <point x="103" y="0" type="curve" smooth="yes"/>
      <point x="496" y="0" type="line"/>
      <point x="496" y="-88" type="line" smooth="yes"/>
      <point x="496" y="-101"/>
      <point x="505" y="-110"/>
      <point x="518" y="-110" type="curve" smooth="yes"/>
      <point x="535" y="-110" type="line" smooth="yes"/>
      <point x="548" y="-110"/>
      <point x="557" y="-101"/>
      <point x="557" y="-88" type="curve" smooth="yes"/>
      <point x="557" y="36" type="line" smooth="yes"/>
      <point x="557" y="49"/>
      <point x="548" y="58"/>
      <point x="535" y="58" type="curve" smooth="yes"/>
      <point x="515" y="58" type="line" name="hr01"/>
      <point x="515" y="498" type="line" smooth="yes"/>
      <point x="515" y="511"/>
      <point x="506" y="520"/>
      <point x="493" y="520" type="curve" smooth="yes"/>
      <point x="476" y="520" type="line" smooth="yes"/>
      <point x="463" y="520"/>
      <point x="454" y="511"/>
      <point x="454" y="498" type="curve" smooth="yes"/>
      <point x="454" y="58" type="line"/>
      <point x="142" y="58" type="line"/>
    </contour>
  </outline>
</glyph>
<glyph name="afii10089" format="1">
  <advance width="557"/>
  <unicode hex="0447"/>
  <outline>
    <contour>
      <point x="437" y="0" type="curve" name="hr00"/>
      <point x="454" y="0" type="line" smooth="yes"/>
      <point x="467" y="0"/>
      <point x="476" y="9"/>
      <point x="476" y="22" type="curve" smooth="yes"/>
      <point x="476" y="498" type="line" smooth="yes"/>
      <point x="476" y="511"/>
      <point x="467" y="520"/>
      <point x="454" y="520" type="curve" smooth="yes"/>
      <point x="437" y="520" type="line" smooth="yes"/>
      <point x="424" y="520"/>
      <point x="415" y="511"/>
      <point x="415" y="498" type="curve" smooth="yes"/>
      <point x="415" y="251" type="line"/>
      <point x="249" y="251" type="line" smooth="yes"/>
      <point x="149" y="251"/>
      <point x="103" y="297"/>
      <point x="103" y="397" type="curve" smooth="yes"/>
      <point x="103" y="498" type="line" smooth="yes"/>
      <point x="103" y="511"/>
      <point x="94" y="520"/>
      <point x="81" y="520" type="curve" smooth="yes"/>
      <point x="64" y="520" type="line" smooth="yes"/>
      <point x="51" y="520"/>
      <point x="42" y="511"/>
      <point x="42" y="498" type="curve" smooth="yes"/>
      <point x="42" y="392" type="line" smooth="yes"/>
      <point x="42" y="252"/>
      <point x="115" y="193"/>
      <point x="245" y="193" type="curve" smooth="yes"/>
      <point x="415" y="193" type="line"/>
      <point x="415" y="22" type="line" smooth="yes"/>
      <point x="415" y="9"/>
      <point x="424" y="0"/>
    </contour>
  </outline>
</glyph>
<glyph name="afii10091" format="1">
  <advance width="759"/>
  <unicode hex="0449"/>
  <outline>
    <contour>
      <point x="668" y="498" type="line" smooth="yes"/>
      <point x="668" y="511"/>
      <point x="659" y="520"/>
      <point x="646" y="520" type="curve" smooth="yes"/>
      <point x="629" y="520" type="line" smooth="yes"/>
      <point x="616" y="520"/>
      <point x="607" y="511"/>
      <point x="607" y="498" type="curve" smooth="yes"/>
      <point x="607" y="58" type="line"/>
      <point x="405" y="58" type="line"/>
      <point x="405" y="498" type="line" smooth="yes"/>
      <point x="405" y="511"/>
      <point x="396" y="520"/>
      <point x="383" y="520" type="curve" smooth="yes"/>
      <point x="366" y="520" type="line" smooth="yes"/>
      <point x="353" y="520"/>
      <point x="344" y="511"/>
      <point x="344" y="498" type="curve" smooth="yes"/>
      <point x="344" y="58" type="line"/>
      <point x="142" y="58" type="line"/>
      <point x="142" y="498" type="line" smooth="yes"/>
      <point x="142" y="511"/>
      <point x="133" y="520"/>
      <point x="120" y="520" type="curve" smooth="yes"/>
      <point x="103" y="520" type="line" smooth="yes"/>
      <point x="90" y="520"/>
      <point x="81" y="511"/>
      <point x="81" y="498" type="curve" smooth="yes"/>
      <point x="81" y="22" type="line" smooth="yes"/>
      <point x="81" y="9"/>
      <point x="90" y="0"/>
      <point x="103" y="0" type="curve" smooth="yes"/>
      <point x="649" y="0" type="line" name="hr01"/>
      <point x="649" y="-88" type="line" smooth="yes"/>
      <point x="649" y="-101"/>
      <point x="658" y="-110"/>
      <point x="671" y="-110" type="curve" smooth="yes"/>
      <point x="688" y="-110" type="line" smooth="yes"/>
      <point x="701" y="-110"/>
      <point x="710" y="-101"/>
      <point x="710" y="-88" type="curve" smooth="yes"/>
      <point x="710" y="36" type="line" smooth="yes"/>
      <point x="710" y="49"/>
      <point x="701" y="58"/>
      <point x="688" y="58" type="curve" smooth="yes"/>
      <point x="668" y="58" type="line" name="hr02"/>
    </contour>
  </outline>
</glyph>
<glyph name="afii10097" format="1">
  <advance width="538"/>
  <unicode hex="044F"/>
  <outline>
    <contour>
      <point x="59" y="40" type="line" name="hr00"/>
      <point x="52" y="32"/>
      <point x="51" y="25"/>
      <point x="51" y="20" type="curve" smooth="yes"/>
      <point x="51" y="9"/>
      <point x="60" y="0"/>
      <point x="71" y="0" type="curve"/>
      <point x="89" y="0" type="line"/>
      <point x="100" y="0"/>
      <point x="110" y="8"/>
      <point x="116" y="15" type="curve"/>
      <point x="230" y="190" type="line"/>
      <point x="396" y="190" type="line"/>
      <point x="396" y="22" type="line"/>
      <point x="396" y="9"/>
      <point x="405" y="0"/>
      <point x="418" y="0" type="curve"/>
      <point x="435" y="0" type="line"/>
      <point x="448" y="0"/>
      <point x="457" y="9"/>
      <point x="457" y="22" type="curve"/>
      <point x="457" y="498" type="line"/>
      <point x="457" y="511"/>
      <point x="448" y="520"/>
      <point x="435" y="520" type="curve"/>
      <point x="243" y="520" type="line"/>
      <point x="128" y="520"/>
      <point x="60" y="461"/>
      <point x="60" y="355" type="curve" smooth="yes"/>
      <point x="60" y="276"/>
      <point x="97" y="223"/>
      <point x="164" y="201" type="curve"/>
    </contour>
    <contour>
      <point x="248" y="248" type="line"/>
      <point x="161" y="248"/>
      <point x="123" y="290"/>
      <point x="123" y="355" type="curve" smooth="yes"/>
      <point x="123" y="420"/>
      <point x="161" y="462"/>
      <point x="248" y="462" type="curve"/>
      <point x="396" y="462" type="line"/>
      <point x="396" y="248" type="line"/>
    </contour>
  </outline>
</glyph>
<glyph name="afii10106" format="1">
  <advance width="779"/>
  <unicode hex="0459"/>
  <outline>
    <contour>
      <point x="17" y="26" type="curve"/>
      <point x="17" y="12" type="line" smooth="yes"/>
      <point x="17" y="-1"/>
      <point x="26" y="-10"/>
      <point x="39" y="-10" type="curve" smooth="yes"/>
      <point x="58" y="-10" type="line" smooth="yes"/>
      <point x="163" y="-10"/>
      <point x="195" y="69"/>
      <point x="195" y="153" type="curve" smooth="yes"/>
      <point x="195" y="462" type="line"/>
      <point x="355" y="462" type="line"/>
      <point x="355" y="22" type="line" smooth="yes"/>
      <point x="355" y="9"/>
      <point x="364" y="0"/>
      <point x="377" y="0" type="curve" name="hr01" smooth="yes"/>
      <point x="519" y="0" type="line" smooth="yes"/>
      <point x="665" y="0"/>
      <point x="740" y="68"/>
      <point x="740" y="187" type="curve" smooth="yes"/>
      <point x="740" y="299"/>
      <point x="665" y="377"/>
      <point x="535" y="377" type="curve" smooth="yes"/>
      <point x="416" y="377" type="line"/>
      <point x="416" y="498" type="line" smooth="yes"/>
      <point x="416" y="511"/>
      <point x="407" y="520"/>
      <point x="394" y="520" type="curve" smooth="yes"/>
      <point x="156" y="520" type="line" smooth="yes"/>
      <point x="143" y="520"/>
      <point x="134" y="511"/>
      <point x="134" y="498" type="curve" smooth="yes"/>
      <point x="134" y="151" type="line" smooth="yes"/>
      <point x="134" y="90"/>
      <point x="115" y="48"/>
      <point x="45" y="48" type="curve" smooth="yes"/>
      <point x="39" y="48" type="line" smooth="yes"/>
      <point x="26" y="48"/>
      <point x="17" y="39"/>
    </contour>
    <contour>
      <point x="529" y="319" type="line" smooth="yes"/>
      <point x="636" y="319"/>
      <point x="679" y="268"/>
      <point x="679" y="187" type="curve" smooth="yes"/>
      <point x="679" y="107"/>
      <point x="633" y="58"/>
      <point x="529" y="58" type="curve" name="hr02" smooth="yes"/>
      <point x="416" y="58" type="line"/>
      <point x="416" y="319" type="line"/>
    </contour>
  </outline>
</glyph>
<glyph name="afii10107" format="1">
  <advance width="766"/>
  <unicode hex="045A"/>
  <outline>
    <contour>
      <point x="142" y="498" type="line" name="hr00" smooth="yes"/>
      <point x="142" y="511"/>
      <point x="133" y="520"/>
      <point x="120" y="520" type="curve" smooth="yes"/>
      <point x="103" y="520" type="line" smooth="yes"/>
      <point x="90" y="520"/>
      <point x="81" y="511"/>
      <point x="81" y="498" type="curve" smooth="yes"/>
      <point x="81" y="22" type="line" smooth="yes"/>
      <point x="81" y="9"/>
      <point x="90" y="0"/>
      <point x="103" y="0" type="curve" smooth="yes"/>
      <point x="120" y="0" type="line" smooth="yes"/>
      <point x="133" y="0"/>
      <point x="142" y="9"/>
      <point x="142" y="22" type="curve" smooth="yes"/>
      <point x="142" y="237" type="line"/>
      <point x="342" y="237" type="line"/>
      <point x="342" y="22" type="line" smooth="yes"/>
      <point x="342" y="9"/>
      <point x="351" y="0"/>
      <point x="364" y="0" type="curve" smooth="yes"/>
      <point x="506" y="0" type="line" smooth="yes"/>
      <point x="652" y="0"/>
      <point x="727" y="68"/>
      <point x="727" y="187" type="curve" smooth="yes"/>
      <point x="727" y="299"/>
      <point x="652" y="377"/>
      <point x="522" y="377" type="curve" smooth="yes"/>
      <point x="403" y="377" type="line"/>
      <point x="403" y="498" type="line" smooth="yes"/>
      <point x="403" y="511"/>
      <point x="394" y="520"/>
      <point x="381" y="520" type="curve" smooth="yes"/>
      <point x="364" y="520" type="line" smooth="yes"/>
      <point x="351" y="520"/>
      <point x="342" y="511"/>
      <point x="342" y="498" type="curve" smooth="yes"/>
      <point x="342" y="295" type="line"/>
      <point x="142" y="295" type="line"/>
    </contour>
    <contour>
      <point x="516" y="319" type="line" smooth="yes"/>
      <point x="623" y="319"/>
      <point x="666" y="268"/>
      <point x="666" y="187" type="curve" smooth="yes"/>
      <point x="666" y="107"/>
      <point x="620" y="58"/>
      <point x="516" y="58" type="curve" smooth="yes"/>
      <point x="403" y="58" type="line"/>
      <point x="403" y="319" type="line"/>
    </contour>
  </outline>
</glyph>
<glyph name="qubutshebrew" format="1">
  <advance width="0"/>
  <unicode hex="05BB"/>
  <outline>
    <contour>
      <point x="121" y="-264" type="line" smooth="yes"/>
      <point x="134" y="-264"/>
      <point x="143" y="-255"/>
      <point x="143" y="-242" type="curve" smooth="yes"/>
      <point x="143" y="-219" type="line" smooth="yes"/>
      <point x="143" y="-206"/>
      <point x="134" y="-197"/>
      <point x="121" y="-197" type="curve" smooth="yes"/>
      <point x="98" y="-197" type="line" smooth="yes"/>
      <point x="85" y="-197"/>
      <point x="76" y="-206"/>
      <point x="76" y="-219" type="curve" smooth="yes"/>
      <point x="76" y="-242" type="line" smooth="yes"/>
      <point x="76" y="-255"/>
      <point x="85" y="-264"/>
      <point x="98" y="-264" type="curve" smooth="yes"/>
    </contour>
    <contour>
      <point x="-19" y="-146" type="line" smooth="yes"/>
      <point x="-6" y="-146"/>
      <point x="3" y="-137"/>
      <point x="3" y="-124" type="curve" smooth="yes"/>
      <point x="3" y="-101" type="line" smooth="yes"/>
      <point x="3" y="-88"/>
      <point x="-6" y="-79"/>
      <point x="-19" y="-79" type="curve" smooth="yes"/>
      <point x="-42" y="-79" type="line" smooth="yes"/>
      <point x="-55" y="-79"/>
      <point x="-64" y="-88"/>
      <point x="-64" y="-101" type="curve" smooth="yes"/>
      <point x="-64" y="-124" type="line" smooth="yes"/>
      <point x="-64" y="-137"/>
      <point x="-55" y="-146"/>
      <point x="-42" y="-146" type="curve" smooth="yes"/>
    </contour>
    <contour>
      <point x="51" y="-206" type="line" smooth="yes"/>
      <point x="64" y="-206"/>
      <point x="73" y="-197"/>
      <point x="73" y="-184" type="curve" smooth="yes"/>
      <point x="73" y="-161" type="line" smooth="yes"/>
      <point x="73" y="-148"/>
      <point x="64" y="-139"/>
      <point x="51" y="-139" type="curve" smooth="yes"/>
      <point x="28" y="-139" type="line" smooth="yes"/>
      <point x="15" y="-139"/>
      <point x="6" y="-148"/>
      <point x="6" y="-161" type="curve" smooth="yes"/>
      <point x="6" y="-184" type="line" smooth="yes"/>
      <point x="6" y="-197"/>
      <point x="15" y="-206"/>
      <point x="28" y="-206" type="curve" smooth="yes"/>
    </contour>
    <contour>
      <point x="0" y="0" type="move" name="_bottom"/>
    </contour>
  </outline>
</glyph>
<glyph name="sindothebrew" format="1">
  <advance width="0"/>
  <unicode hex="05C2"/>
  <outline>
    <contour>
      <point x="31" y="533" type="line" smooth="yes"/>
      <point x="44" y="533"/>
      <point x="53" y="542"/>
      <point x="53" y="555" type="curve" smooth="yes"/>
      <point x="53" y="578" type="line" smooth="yes"/>
      <point x="53" y="591"/>
      <point x="44" y="600"/>
      <point x="31" y="600" type="curve" smooth="yes"/>
      <point x="8" y="600" type="line" smooth="yes"/>
      <point x="-5" y="600"/>
      <point x="-14" y="591"/>
      <point x="-14" y="578" type="curve" smooth="yes"/>
      <point x="-14" y="555" type="line" smooth="yes"/>
      <point x="-14" y="542"/>
      <point x="-5" y="533"/>
      <point x="8" y="533" type="curve" smooth="yes"/>
    </contour>
    <contour>
      <point x="-70" y="415" type="move" name="_topleft"/>
    </contour>
  </outline>
</glyph>
<glyph name="qamatsqatanhebrew" format="1">
  <advance width="0"/>
  <unicode hex="05C7"/>
  <outline>
    <contour>
      <point x="106" y="-131" type="line" smooth="yes"/>
      <point x="119" y="-131"/>
      <point x="128" y="-122"/>
      <point x="128" y="-109" type="curve" smooth="yes"/>
      <point x="128" y="-101" type="line" smooth="yes"/>
      <point x="128" y="-88"/>
      <point x="119" y="-79"/>
      <point x="106" y="-79" type="curve" smooth="yes"/>
      <point x="-102" y="-79" type="line" smooth="yes"/>
      <point x="-115" y="-79"/>
      <point x="-124" y="-88"/>
      <point x="-124" y="-101" type="curve" smooth="yes"/>
      <point x="-124" y="-109" type="line" smooth="yes"/>
      <point x="-124" y="-122"/>
      <point x="-115" y="-131"/>
      <point x="-102" y="-131" type="curve" smooth="yes"/>
    </contour>
    <contour>
      <point x="4" y="-245" type="line" smooth="yes"/>
      <point x="17" y="-245"/>
      <point x="26" y="-236"/>
      <point x="26" y="-223" type="curve" smooth="yes"/>
      <point x="26" y="-134" type="line" smooth="yes"/>
      <point x="26" y="-111"/>
      <point x="17" y="-112"/>
      <point x="4" y="-112" type="curve" smooth="yes"/>
      <point x="-3" y="-112" type="line" smooth="yes"/>
      <point x="-16" y="-112"/>
      <point x="-25" y="-111"/>
      <point x="-25" y="-134" type="curve" smooth="yes"/>
      <point x="-25" y="-223" type="line" smooth="yes"/>
      <point x="-25" y="-236"/>
      <point x="-16" y="-245"/>
      <point x="-3" y="-245" type="curve" smooth="yes"/>
    </contour>
    <contour>
      <point x="2" y="0" type="move" name="_bottom"/>
    </contour>
  </outline>
</glyph>
<glyph name="gimelhebrew" format="1">
  <advance width="430"/>
  <unicode hex="05D2"/>
  <outline>
    <contour>
      <point x="368" y="0" type="line" smooth="yes"/>
      <point x="381" y="0"/>
      <point x="392" y="9"/>
      <point x="390" y="22" type="curve" smooth="yes"/>
      <point x="329" y="337" type="line" smooth="yes"/>
      <point x="298" y="489"/>
      <point x="254" y="571"/>
      <point x="136" y="571" type="curve" smooth="yes"/>
      <point x="99" y="571" type="line" smooth="yes"/>
      <point x="86" y="571"/>
      <point x="77" y="562"/>
      <point x="77" y="549" type="curve" smooth="yes"/>
      <point x="77" y="535" type="line" smooth="yes"/>
      <point x="77" y="522"/>
      <point x="86" y="513"/>
      <point x="99" y="513" type="curve" smooth="yes"/>
      <point x="136" y="513" type="line" smooth="yes"/>
      <point x="219" y="513"/>
      <point x="244" y="449"/>
      <point x="268" y="332" type="curve" smooth="yes"/>
      <point x="329" y="22" type="line" smooth="yes"/>
      <point x="332" y="9"/>
      <point x="338" y="0"/>
      <point x="351" y="0" type="curve" smooth="yes"/>
    </contour>
    <contour>
      <point x="275" y="96"/>
      <point x="341" y="196"/>
      <point x="341" y="271" type="curve"/>
      <point x="283" y="259" type="line"/>
      <point x="288" y="220"/>
      <point x="226" y="140"/>
      <point x="175" y="106" type="curve" smooth="yes"/>
      <point x="141" y="83"/>
      <point x="85" y="64"/>
      <point x="71" y="59" type="curve" smooth="yes"/>
      <point x="56" y="53"/>
      <point x="50" y="44"/>
      <point x="50" y="34" type="curve" smooth="yes"/>
      <point x="50" y="7" type="line" smooth="yes"/>
      <point x="50" y="-7"/>
      <point x="61" y="-10"/>
      <point x="74" y="-8" type="curve" smooth="yes"/>
      <point x="121" y="1"/>
      <point x="161" y="17"/>
      <point x="210" y="51" type="curve" smooth="yes"/>
    </contour>
    <contour>
      <point x="225" y="0" type="move" name="bottom"/>
    </contour>
    <contour>
      <point x="255" y="520" type="move" name="top"/>
    </contour>
    <contour>
      <point x="25" y="0" type="move" name="bottomleft"/>
    </contour>
    <contour>
      <point x="25" y="520" type="move" name="topleft"/>
    </contour>
    <contour>
      <point x="157" y="260" type="move" name="center"/>
    </contour>
  </outline>
</glyph>
<glyph name="vavhebrew" format="1">
  <advance width="229"/>
  <unicode hex="05D5"/>
  <outline>
    <contour>
      <point x="123" y="0" type="line" smooth="yes"/>
      <point x="136" y="0"/>
      <point x="145" y="9"/>
      <point x="145" y="22" type="curve" smooth="yes"/>
      <point x="145" y="549" type="line"/>
      <point x="145" y="562"/>
      <point x="136" y="571"/>
      <point x="123" y="571" type="curve" smooth="yes"/>
      <point x="106" y="571" type="line" smooth="yes"/>
      <point x="93" y="571"/>
      <point x="84" y="562"/>
      <point x="84" y="549" type="curve" smooth="yes"/>
      <point x="84" y="22" type="line" smooth="yes"/>
      <point x="84" y="9"/>
      <point x="93" y="0"/>
      <point x="106" y="0" type="curve" smooth="yes"/>
    </contour>
    <contour>
      <point x="114" y="0" type="move" name="bottom"/>
    </contour>
    <contour>
      <point x="115" y="520" type="move" name="top"/>
    </contour>
    <contour>
      <point x="20" y="0" type="move" name="bottomleft"/>
    </contour>
    <contour>
      <point x="166" y="520" type="move" name="topleft"/>
    </contour>
    <contour>
      <point x="13" y="260" type="move" name="center"/>
    </contour>
  </outline>
</glyph>
<glyph name="finalmemhebrew" format="1">
  <advance width="608"/>
  <unicode hex="05DD"/>
  <outline>
    <contour>
      <point x="508" y="0" type="line" smooth="yes"/>
      <point x="521" y="0"/>
      <point x="530" y="9"/>
      <point x="530" y="22" type="curve" smooth="yes"/>
      <point x="530" y="327" type="line" smooth="yes"/>
      <point x="530" y="482"/>
      <point x="453" y="571"/>
      <point x="283" y="571" type="curve" smooth="yes"/>
      <point x="106" y="571" type="line" smooth="yes"/>
      <point x="93" y="571"/>
      <point x="84" y="562"/>
      <point x="84" y="549" type="curve"/>
      <point x="84" y="22" type="line" smooth="yes"/>
      <point x="84" y="9"/>
      <point x="93" y="0"/>
      <point x="106" y="0" type="curve" smooth="yes"/>
    </contour>
    <contour>
      <point x="144" y="513" type="line"/>
      <point x="278" y="513" type="line" smooth="yes"/>
      <point x="413" y="513"/>
      <point x="469" y="442"/>
      <point x="469" y="322" type="curve" smooth="yes"/>
      <point x="469" y="58" type="line"/>
      <point x="144" y="58" type="line"/>
    </contour>
    <contour>
      <point x="304" y="0" type="move" name="bottom"/>
    </contour>
    <contour>
      <point x="304" y="520" type="move" name="top"/>
    </contour>
    <contour>
      <point x="20" y="0" type="move" name="bottomleft"/>
    </contour>
    <contour>
      <point x="20" y="520" type="move" name="topleft"/>
    </contour>
    <contour>
      <point x="304" y="260" type="move" name="center"/>
    </contour>
  </outline>
</glyph>
<glyph name="finalnunhebrew" format="1">
  <advance width="229"/>
  <unicode hex="05DF"/>
  <outline>
    <contour>
      <point x="123" y="-124" type="line" smooth="yes"/>
      <point x="136" y="-124"/>
      <point x="145" y="-115"/>
      <point x="145" y="-102" type="curve"/>
      <point x="145" y="549" type="line" smooth="yes"/>
      <point x="145" y="562"/>
      <point x="136" y="571"/>
      <point x="123" y="571" type="curve" smooth="yes"/>
      <point x="106" y="571" type="line" smooth="yes"/>
      <point x="93" y="571"/>
      <point x="84" y="562"/>
      <point x="84" y="549" type="curve" smooth="yes"/>
      <point x="84" y="-102" type="line" smooth="yes"/>
      <point x="84" y="-115"/>
      <point x="93" y="-124"/>
      <point x="106" y="-124" type="curve" smooth="yes"/>
    </contour>
    <contour>
      <point x="115" y="0" type="move" name="bottom"/>
    </contour>
    <contour>
      <point x="115" y="520" type="move" name="top"/>
    </contour>
    <contour>
      <point x="20" y="0" type="move" name="bottomleft"/>
    </contour>
    <contour>
      <point x="20" y="520" type="move" name="topleft"/>
    </contour>
    <contour>
      <point x="115" y="260" type="move" name="center"/>
    </contour>
  </outline>
</glyph>
<glyph name="reshhebrew" format="1">
  <advance width="534"/>
  <unicode hex="05E8"/>
  <outline>
    <contour>
      <point x="434" y="0" type="line" smooth="yes"/>
      <point x="447" y="0"/>
      <point x="456" y="9"/>
      <point x="456" y="22" type="curve" smooth="yes"/>
      <point x="456" y="327" type="line" smooth="yes"/>
      <point x="456" y="482"/>
      <point x="379" y="571"/>
      <point x="209" y="571" type="curve" smooth="yes"/>
      <point x="82" y="571" type="line" smooth="yes"/>
      <point x="69" y="571"/>
      <point x="60" y="562"/>
      <point x="60" y="549" type="curve" smooth="yes"/>
      <point x="60" y="535" type="line" smooth="yes"/>
      <point x="60" y="522"/>
      <point x="69" y="513"/>
      <point x="82" y="513" type="curve" smooth="yes"/>
      <point x="204" y="513" type="line" smooth="yes"/>
      <point x="339" y="513"/>
      <point x="395" y="442"/>
      <point x="395" y="322" type="curve" smooth="yes"/>
      <point x="395" y="22" type="line" smooth="yes"/>
      <point x="395" y="9"/>
      <point x="404" y="0"/>
      <point x="417" y="0" type="curve" smooth="yes"/>
    </contour>
    <contour>
      <point x="424" y="0" type="move" name="bottom"/>
    </contour>
    <contour>
      <point x="291" y="520" type="move" name="top"/>
    </contour>
    <contour>
      <point x="66" y="0" type="move" name="bottomleft"/>
    </contour>
    <contour>
      <point x="66" y="520" type="move" name="topleft"/>
    </contour>
    <contour>
      <point x="248" y="260" type="move" name="center"/>
    </contour>
  </outline>
</glyph>
<glyph name="tavhebrew" format="1">
  <advance width="639"/>
  <unicode hex="05EA"/>
  <outline>
    <contour>
      <point x="309" y="513" type="line"/>
      <point x="444" y="513"/>
      <point x="500" y="442"/>
      <point x="500" y="322" type="curve" smooth="yes"/>
      <point x="500" y="22" type="line" smooth="yes"/>
      <point x="500" y="9"/>
      <point x="509" y="0"/>
      <point x="522" y="0" type="curve" smooth="yes"/>
      <point x="539" y="0" type="line" smooth="yes"/>
      <point x="552" y="0"/>
      <point x="561" y="9"/>
      <point x="561" y="22" type="curve" smooth="yes"/>
      <point x="561" y="327" type="line" smooth="yes"/>
      <point x="561" y="482"/>
      <point x="484" y="571"/>
      <point x="314" y="571" type="curve" smooth="yes"/>
      <point x="122" y="571" type="line" smooth="yes"/>
      <point x="109" y="571"/>
      <point x="100" y="562"/>
      <point x="100" y="549" type="curve" smooth="yes"/>
      <point x="100" y="535" type="line" smooth="yes"/>
      <point x="100" y="522"/>
      <point x="109" y="513"/>
      <point x="122" y="513" type="curve"/>
    </contour>
    <contour>
      <point x="184" y="553"/>
      <point x="180" y="545"/>
      <point x="177" y="532" type="curve" smooth="yes"/>
      <point x="155" y="436"/>
      <point x="153" y="382"/>
      <point x="154" y="292" type="curve"/>
      <point x="154" y="59" type="line"/>
      <point x="79" y="60" type="line" smooth="yes"/>
      <point x="66" y="60"/>
      <point x="57" y="51"/>
      <point x="57" y="38" type="curve" smooth="yes"/>
      <point x="57" y="24" type="line" smooth="yes"/>
      <point x="57" y="11"/>
      <point x="66" y="2"/>
      <point x="79" y="2" type="curve" smooth="yes"/>
      <point x="193" y="0" type="line" smooth="yes"/>
      <point x="206" y="0"/>
      <point x="215" y="9"/>
      <point x="215" y="22" type="curve" smooth="yes"/>
      <point x="215" y="297" type="line"/>
      <point x="214" y="385"/>
      <point x="222" y="438"/>
      <point x="236" y="531" type="curve"/>
      <point x="236" y="544"/>
      <point x="227" y="553"/>
      <point x="214" y="553" type="curve" smooth="yes"/>
      <point x="197" y="553" type="line" smooth="yes"/>
    </contour>
    <contour>
      <point x="359" y="0" type="move" name="bottom"/>
    </contour>
    <contour>
      <point x="359" y="520" type="move" name="top"/>
    </contour>
    <contour>
      <point x="20" y="0" type="move" name="bottomleft"/>
    </contour>
    <contour>
      <point x="20" y="520" type="move" name="topleft"/>
    </contour>
    <contour>
      <point x="359" y="260" type="move" name="center"/>
    </contour>
  </outline>
</glyph>
<glyph name="quoteleft" format="1">
  <advance width="220"/>
  <unicode hex="2018"/>
  <outline>
    <contour>
      <point x="163" y="689" type="line" name="hr00" smooth="yes"/>
      <point x="165" y="701"/>
      <point x="160" y="710"/>
      <point x="149" y="710" type="curve" smooth="yes"/>
      <point x="132" y="710" type="line" smooth="yes"/>
      <point x="117" y="710"/>
      <point x="112" y="702"/>
      <point x="106" y="689" type="curve"/>
      <point x="63" y="576" type="line" smooth="yes"/>
      <point x="60" y="569"/>
      <point x="59" y="563"/>
      <point x="59" y="558" type="curve" smooth="yes"/>
      <point x="59" y="550"/>
      <point x="65" y="542"/>
      <point x="74" y="542" type="curve" smooth="yes"/>
      <point x="119" y="542" type="line" smooth="yes"/>
      <point x="135" y="542"/>
      <point x="142" y="553"/>
      <point x="144" y="569" type="curve" smooth="yes"/>
    </contour>
  </outline>
</glyph>
<glyph name="quotedblright" format="1">
  <advance width="347"/>
  <unicode hex="201D"/>
  <outline>
    <contour>
      <point x="64" y="563" type="line" name="hr00" smooth="yes"/>
      <point x="62" y="551"/>
      <point x="67" y="542"/>
      <point x="78" y="542" type="curve" smooth="yes"/>
      <point x="95" y="542" type="line" smooth="yes"/>
      <point x="110" y="542"/>
      <point x="115" y="550"/>
      <point x="121" y="563" type="curve"/>
      <point x="164" y="676" type="line" smooth="yes"/>
      <point x="167" y="683"/>
      <point x="168" y="689"/>
      <point x="168" y="694" type="curve" smooth="yes"/>
      <point x="168" y="702"/>
      <point x="162" y="710"/>
      <point x="153" y="710" type="curve" smooth="yes"/>
      <point x="108" y="710" type="line" smooth="yes"/>
      <point x="92" y="710"/>
      <point x="85" y="699"/>
      <point x="83" y="683" type="curve" smooth="yes"/>
    </contour>
    <contour>
      <point x="198" y="563" type="line" smooth="yes"/>
      <point x="196" y="551"/>
      <point x="201" y="542"/>
      <point x="212" y="542" type="curve" smooth="yes"/>
      <point x="229" y="542" type="line" smooth="yes"/>
      <point x="244" y="542"/>
      <point x="249" y="550"/>
      <point x="255" y="563" type="curve"/>
      <point x="298" y="676" type="line" smooth="yes"/>
      <point x="301" y="683"/>
      <point x="302" y="689"/>
      <point x="302" y="694" type="curve" smooth="yes"/>
      <point x="302" y="702"/>
      <point x="296" y="710"/>
      <point x="287" y="710" type="curve" smooth="yes"/>
      <point x="242" y="710" type="line" smooth="yes"/>
      <point x="226" y="710"/>
      <point x="219" y="699"/>
      <point x="217" y="683" type="curve" smooth="yes"/>
    </contour>
  </outline>
</glyph>
<glyph name="dagger" format="1">
  <advance width="407"/>
  <unicode hex="2020"/>
  <outline>
    <contour>
      <point x="234" y="678" type="line" name="hr00" smooth="yes"/>
      <point x="234" y="691"/>
      <point x="225" y="700"/>
      <point x="212" y="700" type="curve" smooth="yes"/>
      <point x="195" y="700" type="line" smooth="yes"/>
      <point x="182" y="700"/>
      <point x="173" y="691"/>
      <point x="173" y="678" type="curve" smooth="yes"/>
      <point x="173" y="524" type="line"/>
      <point x="56" y="524" type="line" smooth="yes"/>
      <point x="43" y="524"/>
      <point x="34" y="515"/>
      <point x="34" y="502" type="curve" smooth="yes"/>
      <point x="34" y="488" type="line" smooth="yes"/>
      <point x="34" y="475"/>
      <point x="43" y="466"/>
      <point x="56" y="466" type="curve" smooth="yes"/>
      <point x="173" y="466" type="line"/>
      <point x="173" y="22" type="line" smooth="yes"/>
      <point x="173" y="9"/>
      <point x="182" y="0"/>
      <point x="195" y="0" type="curve" smooth="yes"/>
      <point x="212" y="0" type="line" smooth="yes"/>
      <point x="225" y="0"/>
      <point x="234" y="9"/>
      <point x="234" y="22" type="curve" smooth="yes"/>
      <point x="234" y="466" type="line"/>
      <point x="351" y="466" type="line" smooth="yes"/>
      <point x="364" y="466"/>
      <point x="373" y="475"/>
      <point x="373" y="488" type="curve" smooth="yes"/>
      <point x="373" y="502" type="line" smooth="yes"/>
      <point x="373" y="515"/>
      <point x="364" y="524"/>
      <point x="351" y="524" type="curve" smooth="yes"/>
      <point x="234" y="524" type="line"/>
    </contour>
  </outline>
</glyph>
<glyph name="fraction" format="1">
  <advance width="160"/>
  <unicode hex="2044"/>
  <outline>
    <contour>
      <point x="359" y="669" type="line" name="hr00" smooth="yes"/>
      <point x="362" y="673"/>
      <point x="363" y="678"/>
      <point x="363" y="680" type="curve" smooth="yes"/>
      <point x="363" y="692"/>
      <point x="355" y="700"/>
      <point x="343" y="700" type="curve" smooth="yes"/>
      <point x="326" y="700" type="line" smooth="yes"/>
      <point x="308" y="700"/>
      <point x="302" y="693"/>
      <point x="293" y="681" type="curve" smooth="yes"/>
      <point x="-200" y="31" type="line" smooth="yes"/>
      <point x="-203" y="27"/>
      <point x="-204" y="22"/>
      <point x="-204" y="20" type="curve" smooth="yes"/>
      <point x="-204" y="8"/>
      <point x="-196" y="0"/>
      <point x="-184" y="0" type="curve" smooth="yes"/>
      <point x="-167" y="0" type="line" smooth="yes"/>
      <point x="-149" y="0"/>
      <point x="-143" y="7"/>
      <point x="-134" y="19" type="curve" smooth="yes"/>
    </contour>
  </outline>
</glyph>
<glyph name="fiveinferior" format="1">
  <advance width="325"/>
  <unicode hex="2085"/>
  <outline>
    <contour>
      <point x="277" y="158" type="line" smooth="yes"/>
      <point x="277" y="171"/>
      <point x="268" y="180"/>
      <point x="255" y="180" type="curve" smooth="yes"/>
      <point x="87" y="180" type="line"/>
      <point x="73" y="179"/>
      <point x="64" y="167"/>
      <point x="62" y="153" type="curve" smooth="yes"/>
      <point x="47" y="7" type="line" smooth="yes"/>
      <point x="45" y="-7"/>
      <point x="55" y="-19"/>
      <point x="69" y="-19" type="curve" smooth="yes"/>
      <point x="96" y="-19" type="line" smooth="yes"/>
      <point x="116" y="-19"/>
      <point x="113" y="4"/>
      <point x="168" y="4" type="curve" name="hr01" smooth="yes"/>
      <point x="208" y="4"/>
      <point x="234" y="-19"/>
      <point x="234" y="-56" type="curve" smooth="yes"/>
      <point x="234" y="-90"/>
      <point x="207" y="-119"/>
      <point x="163" y="-119" type="curve" smooth="yes"/>
      <point x="112" y="-119"/>
      <point x="102" y="-105"/>
      <point x="89" y="-87" type="curve" smooth="yes"/>
      <point x="85" y="-81"/>
      <point x="78" y="-76"/>
      <point x="69" y="-76" type="curve" smooth="yes"/>
      <point x="49" y="-76" type="line" smooth="yes"/>
      <point x="43" y="-76"/>
      <point x="31" y="-82"/>
      <point x="32" y="-95" type="curve" smooth="yes"/>
      <point x="35" y="-137"/>
      <point x="85" y="-175"/>
      <point x="163" y="-175" type="curve" smooth="yes"/>
      <point x="246" y="-175"/>
      <point x="292" y="-113"/>
      <point x="292" y="-56" type="curve" smooth="yes"/>
      <point x="292" y="15"/>
      <point x="248" y="60"/>
      <point x="168" y="60" type="curve" smooth="yes"/>
      <point x="132" y="60"/>
      <point x="116" y="51"/>
      <point x="109" y="48" type="curve"/>
      <point x="117" y="124" type="line"/>
      <point x="255" y="124" type="line" smooth="yes"/>
      <point x="268" y="124"/>
      <point x="277" y="133"/>
      <point x="277" y="146" type="curve" smooth="yes"/>
    </contour>
  </outline>
</glyph>
<glyph name="nineinferior" format="1">
  <advance width="334"/>
  <unicode hex="2089"/>
  <outline>
    <contour>
      <point x="301" y="62" type="curve" name="hr00" smooth="yes"/>
      <point x="301" y="136"/>
      <point x="237" y="185"/>
      <point x="164" y="185" type="curve" smooth="yes"/>
      <point x="91" y="185"/>
      <point x="27" y="136"/>
      <point x="27" y="62" type="curve" smooth="yes"/>
      <point x="27" y="-15"/>
      <point x="96" y="-64"/>
      <point x="171" y="-61" type="curve"/>
      <point x="110" y="-130" type="line" smooth="yes"/>
      <point x="104" y="-137"/>
      <point x="98" y="-144"/>
      <point x="98" y="-150" type="curve" smooth="yes"/>
      <point x="98" y="-161"/>
      <point x="107" y="-170"/>
      <point x="118" y="-170" type="curve" smooth="yes"/>
      <point x="136" y="-170" type="line" smooth="yes"/>
      <point x="147" y="-170"/>
      <point x="158" y="-163"/>
      <point x="165" y="-155" type="curve" smooth="yes"/>
      <point x="249" y="-52" type="line"/>
      <point x="264" y="-35"/>
      <point x="301" y="4"/>
    </contour>
    <contour>
      <point x="243" y="62" type="curve" smooth="yes"/>
      <point x="243" y="24"/>
      <point x="214" y="-5"/>
      <point x="164" y="-5" type="curve" smooth="yes"/>
      <point x="114" y="-5"/>
      <point x="85" y="24"/>
      <point x="85" y="62" type="curve" smooth="yes"/>
      <point x="85" y="100"/>
      <point x="114" y="129"/>
      <point x="164" y="129" type="curve" smooth="yes"/>
      <point x="214" y="129"/>
      <point x="243" y="100"/>
    </contour>
  </outline>
</glyph>
<glyph name="trademark" format="1">
  <advance width="625"/>
  <unicode hex="2122"/>
  <outline>
    <contour>
      <point x="544" y="678" type="line" name="hr00" smooth="yes"/>
      <point x="544" y="691"/>
      <point x="535" y="700"/>
      <point x="522" y="700" type="curve" smooth="yes"/>
      <point x="508" y="700" type="line" smooth="yes"/>
      <point x="491" y="700"/>
      <point x="482" y="686"/>
      <point x="477" y="678" type="curve" smooth="yes"/>
      <point x="415" y="579" type="line"/>
      <point x="353" y="678" type="line" smooth="yes"/>
      <point x="348" y="686"/>
      <point x="339" y="700"/>
      <point x="322" y="700" type="curve" smooth="yes"/>
      <point x="308" y="700" type="line" smooth="yes"/>
      <point x="295" y="700"/>
      <point x="286" y="691"/>
      <point x="286" y="678" type="curve" smooth="yes"/>
      <point x="286" y="456" type="line" smooth="yes"/>
      <point x="286" y="443"/>
      <point x="295" y="434"/>
      <point x="308" y="434" type="curve" smooth="yes"/>
      <point x="322" y="434" type="line" smooth="yes"/>
      <point x="335" y="434"/>
      <point x="344" y="443"/>
      <point x="344" y="456" type="curve" smooth="yes"/>
      <point x="344" y="585" type="line"/>
      <point x="385" y="518" type="line" smooth="yes"/>
      <point x="392" y="507"/>
      <point x="397" y="498"/>
      <point x="411" y="498" type="curve" smooth="yes"/>
      <point x="419" y="498" type="line" smooth="yes"/>
      <point x="433" y="498"/>
      <point x="438" y="507"/>
      <point x="445" y="518" type="curve" smooth="yes"/>
      <point x="486" y="585" type="line"/>
      <point x="486" y="456" type="line" smooth="yes"/>
      <point x="486" y="443"/>
      <point x="495" y="434"/>
      <point x="508" y="434" type="curve" smooth="yes"/>
      <point x="522" y="434" type="line" smooth="yes"/>
      <point x="535" y="434"/>
      <point x="544" y="443"/>
      <point x="544" y="456" type="curve" smooth="yes"/>
    </contour>
    <contour>
      <point x="50" y="666" type="line" smooth="yes"/>
      <point x="50" y="653"/>
      <point x="59" y="644"/>
      <point x="72" y="644" type="curve" smooth="yes"/>
      <point x="124" y="644" type="line"/>
      <point x="124" y="456" type="line" smooth="yes"/>
      <point x="124" y="443"/>
      <point x="133" y="434"/>
      <point x="146" y="434" type="curve" smooth="yes"/>
      <point x="160" y="434" type="line" smooth="yes"/>
      <point x="173" y="434"/>
      <point x="182" y="443"/>
      <point x="182" y="456" type="curve" smooth="yes"/>
      <point x="182" y="644" type="line"/>
      <point x="234" y="644" type="line" smooth="yes"/>
      <point x="247" y="644"/>
      <point x="256" y="653"/>
      <point x="256" y="666" type="curve" smooth="yes"/>
      <point x="256" y="678" type="line" smooth="yes"/>
      <point x="256" y="691"/>
      <point x="247" y="700"/>
      <point x="234" y="700" type="curve" smooth="yes"/>
      <point x="72" y="700" type="line" smooth="yes"/>
      <point x="59" y="700"/>
      <point x="50" y="691"/>
      <point x="50" y="678" type="curve" smooth="yes"/>
    </contour>
  </outline>
</glyph>
<glyph name="radical" format="1">
  <advance width="664"/>
  <unicode hex="221A"/>
  <outline>
    <contour>
      <point x="234" y="73" type="line" name="hr00"/>
      <point x="90" y="505" type="line" smooth="yes"/>
      <point x="88" y="510"/>
      <point x="81" y="520"/>
      <point x="68" y="520" type="curve" smooth="yes"/>
      <point x="48" y="520" type="line" smooth="yes"/>
      <point x="37" y="520"/>
      <point x="28" y="511"/>
      <point x="28" y="500" type="curve" smooth="yes"/>
      <point x="28" y="498"/>
      <point x="29" y="492"/>
      <point x="30" y="489" type="curve" smooth="yes"/>
      <point x="189" y="15" type="line" smooth="yes"/>
      <point x="192" y="8"/>
      <point x="198" y="0"/>
      <point x="211" y="0" type="curve" smooth="yes"/>
      <point x="260" y="0" type="line" smooth="yes"/>
      <point x="273" y="0"/>
      <point x="280" y="9"/>
      <point x="285" y="25" type="curve" smooth="yes"/>
      <point x="501" y="802" type="line"/>
      <point x="627" y="802" type="line" smooth="yes"/>
      <point x="640" y="802"/>
      <point x="649" y="811"/>
      <point x="649" y="824" type="curve" smooth="yes"/>
      <point x="649" y="838" type="line" smooth="yes"/>
      <point x="649" y="851"/>
      <point x="640" y="860"/>
      <point x="627" y="860" type="curve" smooth="yes"/>
      <point x="471" y="860" type="line" smooth="yes"/>
      <point x="457" y="860"/>
      <point x="449" y="846"/>
      <point x="446" y="836" type="curve" smooth="yes"/>
    </contour>
  </outline>
</glyph>
<glyph name="approxequal" format="1">
  <advance width="563"/>
  <unicode hex="2248"/>
  <outline>
    <contour>
      <point x="377" y="377" type="curve" smooth="yes"/>
      <point x="433" y="377"/>
      <point x="487" y="407"/>
      <point x="487" y="432" type="curve" smooth="yes"/>
      <point x="487" y="455" type="line" smooth="yes"/>
      <point x="487" y="465"/>
      <point x="480" y="472"/>
      <point x="470" y="472" type="curve" name="hr01" smooth="yes"/>
      <point x="451" y="472"/>
      <point x="430" y="437"/>
      <point x="378" y="437" type="curve" name="hr02" smooth="yes"/>
      <point x="306" y="437"/>
      <point x="271" y="472"/>
      <point x="187" y="472" type="curve" name="hr03" smooth="yes"/>
      <point x="131" y="472"/>
      <point x="77" y="442"/>
      <point x="77" y="417" type="curve" smooth="yes"/>
      <point x="77" y="394" type="line" smooth="yes"/>
      <point x="77" y="384"/>
      <point x="84" y="377"/>
      <point x="94" y="377" type="curve" name="hr04" smooth="yes"/>
      <point x="113" y="377"/>
      <point x="134" y="412"/>
      <point x="186" y="412" type="curve" name="hr05" smooth="yes"/>
      <point x="261" y="412"/>
      <point x="297" y="377"/>
    </contour>
    <contour>
      <point x="377" y="127" type="curve" smooth="yes"/>
      <point x="433" y="127"/>
      <point x="487" y="157"/>
      <point x="487" y="182" type="curve" smooth="yes"/>
      <point x="487" y="205" type="line" smooth="yes"/>
      <point x="487" y="215"/>
      <point x="480" y="222"/>
      <point x="470" y="222" type="curve" name="hr07" smooth="yes"/>
      <point x="451" y="222"/>
      <point x="430" y="187"/>
      <point x="378" y="187" type="curve" name="hr08" smooth="yes"/>
      <point x="306" y="187"/>
      <point x="271" y="222"/>
      <point x="187" y="222" type="curve" name="hr09" smooth="yes"/>
      <point x="131" y="222"/>
      <point x="77" y="192"/>
      <point x="77" y="167" type="curve" smooth="yes"/>
      <point x="77" y="144" type="line" smooth="yes"/>
      <point x="77" y="134"/>
      <point x="84" y="127"/>
      <point x="94" y="127" type="curve" name="hr10" smooth="yes"/>
      <point x="113" y="127"/>
      <point x="134" y="162"/>
      <point x="186" y="162" type="curve" name="hr11" smooth="yes"/>
      <point x="261" y="162"/>
      <point x="297" y="127"/>
    </contour>
  </outline>
</glyph>
<glyph name="notequal" format="1">
  <advance width="545"/>
  <unicode hex="2260"/>
  <outline>
    <contour>
      <point x="407" y="548" type="line" name="hr00"/>
      <point x="409" y="553"/>
      <point x="410" y="558"/>
      <point x="410" y="560" type="curve" smooth="yes"/>
      <point x="410" y="571"/>
      <point x="401" y="580"/>
      <point x="390" y="580" type="curve"/>
      <point x="373" y="580" type="line"/>
      <point x="360" y="580"/>
      <point x="353" y="570"/>
      <point x="351" y="565" type="curve"/>
      <point x="304" y="454" type="line"/>
      <point x="85" y="454" type="line"/>
      <point x="72" y="454"/>
      <point x="63" y="445"/>
      <point x="63" y="432" type="curve"/>
      <point x="63" y="418" type="line"/>
      <point x="63" y="405"/>
      <point x="72" y="396"/>
      <point x="85" y="396" type="curve"/>
      <point x="280" y="396" type="line"/>
      <point x="200" y="204" type="line"/>
      <point x="85" y="204" type="line"/>
      <point x="72" y="204"/>
      <point x="63" y="195"/>
      <point x="63" y="182" type="curve"/>
      <point x="63" y="168" type="line"/>
      <point x="63" y="155"/>
      <point x="72" y="146"/>
      <point x="85" y="146" type="curve"/>
      <point x="176" y="146" type="line"/>
      <point x="137" y="53" type="line"/>
      <point x="135" y="48"/>
      <point x="134" y="43"/>
      <point x="134" y="41" type="curve" smooth="yes"/>
      <point x="134" y="30"/>
      <point x="143" y="21"/>
      <point x="154" y="21" type="curve"/>
      <point x="171" y="21" type="line"/>
      <point x="184" y="21"/>
      <point x="191" y="31"/>
      <point x="193" y="36" type="curve"/>
      <point x="239" y="146" type="line"/>
      <point x="460" y="146" type="line"/>
      <point x="473" y="146"/>
      <point x="482" y="155"/>
      <point x="482" y="168" type="curve"/>
      <point x="482" y="182" type="line"/>
      <point x="482" y="195"/>
      <point x="473" y="204"/>
      <point x="460" y="204" type="curve"/>
      <point x="263" y="204" type="line"/>
      <point x="343" y="396" type="line"/>
      <point x="460" y="396" type="line"/>
      <point x="473" y="396"/>
      <point x="482" y="405"/>
      <point x="482" y="418" type="curve"/>
      <point x="482" y="432" type="line"/>
      <point x="482" y="445"/>
      <point x="473" y="454"/>
      <point x="460" y="454" type="curve"/>
      <point x="367" y="454" type="line"/>
    </contour>
  </outline>
</glyph>
<glyph name="lessequal" format="1">
  <advance width="527"/>
  <unicode hex="2264"/>
  <outline>
    <contour>
      <point x="71" y="390" type="line" name="hr00" smooth="yes"/>
      <point x="71" y="372"/>
      <point x="79" y="361"/>
      <point x="100" y="349" type="curve"/>
      <point x="395" y="203" type="line" smooth="yes"/>
      <point x="403" y="199"/>
      <point x="413" y="194"/>
      <point x="422" y="194" type="curve" smooth="yes"/>
      <point x="433" y="194"/>
      <point x="442" y="201"/>
      <point x="442" y="214" type="curve" smooth="yes"/>
      <point x="442" y="228" type="line" smooth="yes"/>
      <point x="442" y="243"/>
      <point x="437" y="251"/>
      <point x="421" y="259" type="curve" smooth="yes"/>
      <point x="134" y="400" type="line"/>
      <point x="421" y="541" type="line" smooth="yes"/>
      <point x="437" y="549"/>
      <point x="442" y="557"/>
      <point x="442" y="572" type="curve" smooth="yes"/>
      <point x="442" y="586" type="line" smooth="yes"/>
      <point x="442" y="599"/>
      <point x="433" y="606"/>
      <point x="422" y="606" type="curve" smooth="yes"/>
      <point x="413" y="606"/>
      <point x="403" y="601"/>
      <point x="395" y="597" type="curve" smooth="yes"/>
      <point x="100" y="451" type="line"/>
      <point x="79" y="439"/>
      <point x="71" y="428"/>
      <point x="71" y="410" type="curve" smooth="yes"/>
    </contour>
    <contour>
      <point x="420" y="0" type="line" smooth="yes"/>
      <point x="433" y="0"/>
      <point x="442" y="9"/>
      <point x="442" y="22" type="curve" smooth="yes"/>
      <point x="442" y="36" type="line" smooth="yes"/>
      <point x="442" y="49"/>
      <point x="433" y="58"/>
      <point x="420" y="58" type="curve" smooth="yes"/>
      <point x="93" y="58" type="line" smooth="yes"/>
      <point x="80" y="58"/>
      <point x="71" y="49"/>
      <point x="71" y="36" type="curve" smooth="yes"/>
      <point x="71" y="22" type="line" smooth="yes"/>
      <point x="71" y="9"/>
      <point x="80" y="0"/>
      <point x="93" y="0" type="curve" smooth="yes"/>
    </contour>
  </outline>
</glyph>
<glyph name="lozenge" format="1">
  <advance width="532"/>
  <unicode hex="25CA"/>
  <outline>
    <contour>
      <point x="49" y="355" type="curve" name="hr00" smooth="yes"/>
      <point x="49" y="344"/>
      <point x="53" y="335"/>
      <point x="57" y="327" type="curve" smooth="yes"/>
      <point x="210" y="33" type="line" smooth="yes"/>
      <point x="217" y="19"/>
      <point x="233" y="0"/>
      <point x="260" y="0" type="curve" smooth="yes"/>
      <point x="272" y="0" type="line" smooth="yes"/>
      <point x="299" y="0"/>
      <point x="315" y="19"/>
      <point x="322" y="33" type="curve" smooth="yes"/>
      <point x="475" y="327" type="line" smooth="yes"/>
      <point x="479" y="335"/>
      <point x="483" y="344"/>
      <point x="483" y="355" type="curve" smooth="yes"/>
      <point x="483" y="366"/>
      <point x="479" y="375"/>
      <point x="475" y="383" type="curve" smooth="yes"/>
      <point x="322" y="677" type="line" smooth="yes"/>
      <point x="315" y="691"/>
      <point x="299" y="710"/>
      <point x="272" y="710" type="curve" smooth="yes"/>
      <point x="260" y="710" type="line" smooth="yes"/>
      <point x="233" y="710"/>
      <point x="217" y="691"/>
      <point x="210" y="677" type="curve" smooth="yes"/>
      <point x="57" y="383" type="line" smooth="yes"/>
      <point x="53" y="375"/>
      <point x="49" y="366"/>
    </contour>
    <contour>
      <point x="423" y="355" type="line"/>
      <point x="266" y="55" type="line"/>
      <point x="109" y="355" type="line"/>
      <point x="266" y="655" type="line"/>
    </contour>
  </outline>
</glyph>
<glyph name="Grave" format="1">
  <advance width="316"/>
  <unicode hex="F6CE"/>
  <outline>
    <contour>
      <point x="172" y="862" type="line" name="hr00" smooth="yes"/>
      <point x="161" y="875"/>
      <point x="155" y="880"/>
      <point x="135" y="880" type="curve" smooth="yes"/>
      <point x="89" y="880" type="line" smooth="yes"/>
      <point x="77" y="880"/>
      <point x="70" y="873"/>
      <point x="70" y="861" type="curve" smooth="yes"/>
      <point x="70" y="856"/>
      <point x="72" y="852"/>
      <point x="75" y="849" type="curve" smooth="yes"/>
      <point x="184" y="760" type="line" smooth="yes"/>
      <point x="195" y="751"/>
      <point x="202" y="750"/>
      <point x="215" y="750" type="curve" smooth="yes"/>
      <point x="230" y="750" type="line" smooth="yes"/>
      <point x="240" y="750"/>
      <point x="246" y="756"/>
      <point x="246" y="766" type="curve" smooth="yes"/>
      <point x="246" y="771"/>
      <point x="244" y="776"/>
      <point x="241" y="779" type="curve" smooth="yes"/>
    </contour>
  </outline>
</glyph>
<glyph name="Hungarumlaut" format="1">
  <advance width="426"/>
  <unicode hex="F6CF"/>
  <outline>
    <contour>
      <point x="75" y="781" type="line" name="hr00" smooth="yes"/>
      <point x="73" y="777"/>
      <point x="70" y="771"/>
      <point x="70" y="766" type="curve" smooth="yes"/>
      <point x="70" y="756"/>
      <point x="76" y="750"/>
      <point x="86" y="750" type="curve" smooth="yes"/>
      <point x="101" y="750" type="line" smooth="yes"/>
      <point x="114" y="750"/>
      <point x="123" y="755"/>
      <point x="131" y="764" type="curve" smooth="yes"/>
      <point x="202" y="848" type="line" smooth="yes"/>
      <point x="206" y="852"/>
      <point x="208" y="856"/>
      <point x="208" y="861" type="curve" smooth="yes"/>
      <point x="208" y="873"/>
      <point x="200" y="880"/>
      <point x="188" y="880" type="curve" smooth="yes"/>
      <point x="148" y="880" type="line" smooth="yes"/>
      <point x="127" y="880"/>
      <point x="117" y="874"/>
      <point x="111" y="861" type="curve" smooth="yes"/>
    </contour>
    <contour>
      <point x="223" y="781" type="line" smooth="yes"/>
      <point x="221" y="777"/>
      <point x="218" y="771"/>
      <point x="218" y="766" type="curve" smooth="yes"/>
      <point x="218" y="756"/>
      <point x="224" y="750"/>
      <point x="234" y="750" type="curve" smooth="yes"/>
      <point x="249" y="750" type="line" smooth="yes"/>
      <point x="262" y="750"/>
      <point x="271" y="755"/>
      <point x="279" y="764" type="curve" smooth="yes"/>
      <point x="350" y="848" type="line" smooth="yes"/>
      <point x="354" y="852"/>
      <point x="356" y="856"/>
      <point x="356" y="861" type="curve" smooth="yes"/>
      <point x="356" y="873"/>
      <point x="348" y="880"/>
      <point x="336" y="880" type="curve" smooth="yes"/>
      <point x="296" y="880" type="line" smooth="yes"/>
      <point x="275" y="880"/>
      <point x="265" y="874"/>
      <point x="259" y="861" type="curve" smooth="yes"/>
    </contour>
  </outline>
</glyph>
<glyph name="asciitilde.cap" format="1">
  <advance width="565"/>
  <outline>
    <contour>
      <point x="379" y="303" type="curve" smooth="yes"/>
      <point x="435" y="303"/>
      <point x="489" y="333"/>
      <point x="489" y="358" type="curve" smooth="yes"/>
      <point x="489" y="381" type="line" smooth="yes"/>
      <point x="489" y="391"/>
      <point x="482" y="398"/>
      <point x="472" y="398" type="curve" name="hr01" smooth="yes"/>
      <point x="453" y="398"/>
      <point x="432" y="363"/>
      <point x="380" y="363" type="curve" name="hr02" smooth="yes"/>
      <point x="308" y="363"/>
      <point x="273" y="398"/>
      <point x="189" y="398" type="curve" name="hr03" smooth="yes"/>
      <point x="133" y="398"/>
      <point x="79" y="368"/>
      <point x="79" y="343" type="curve" smooth="yes"/>
      <point x="79" y="320" type="line" smooth="yes"/>
      <point x="79" y="310"/>
      <point x="86" y="303"/>
      <point x="96" y="303" type="curve" name="hr04" smooth="yes"/>
      <point x="115" y="303"/>
      <point x="136" y="338"/>
      <point x="188" y="338" type="curve" name="hr05" smooth="yes"/>
      <point x="263" y="338"/>
      <point x="299" y="303"/>
    </contour>
  </outline>
</glyph>
<glyph name="at.cap" format="1">
  <advance width="813"/>
  <outline>
    <contour>
      <point x="757" y="291" type="curve" smooth="yes"/>
      <point x="758" y="307"/>
      <point x="760" y="370"/>
      <point x="757" y="424" type="curve" smooth="yes"/>
      <point x="748" y="619"/>
      <point x="632" y="727"/>
      <point x="403" y="727" type="curve" smooth="yes"/>
      <point x="203" y="727"/>
      <point x="86" y="614"/>
      <point x="64" y="424" type="curve" smooth="yes"/>
      <point x="60" y="390"/>
      <point x="60" y="290"/>
      <point x="64" y="253" type="curve" smooth="yes"/>
      <point x="85" y="59"/>
      <point x="202" y="-47"/>
      <point x="403" y="-47" type="curve" smooth="yes"/>
      <point x="559" y="-47"/>
      <point x="638" y="3"/>
      <point x="691" y="58" type="curve" smooth="yes"/>
      <point x="694" y="62"/>
      <point x="696" y="66"/>
      <point x="696" y="72" type="curve" smooth="yes"/>
      <point x="696" y="84"/>
      <point x="687" y="93"/>
      <point x="675" y="93" type="curve" smooth="yes"/>
      <point x="649" y="93" type="line" smooth="yes"/>
      <point x="637" y="93"/>
      <point x="630" y="85"/>
      <point x="625" y="81" type="curve" smooth="yes"/>
      <point x="600" y="62"/>
      <point x="554" y="11"/>
      <point x="403" y="11" type="curve" name="hr01" smooth="yes"/>
      <point x="240" y="11"/>
      <point x="142" y="101"/>
      <point x="125" y="258" type="curve" smooth="yes"/>
      <point x="121" y="295"/>
      <point x="121" y="385"/>
      <point x="125" y="419" type="curve" smooth="yes"/>
      <point x="144" y="578"/>
      <point x="240" y="669"/>
      <point x="403" y="669" type="curve" smooth="yes"/>
      <point x="602" y="669"/>
      <point x="684" y="579"/>
      <point x="696" y="419" type="curve" smooth="yes"/>
      <point x="700" y="365"/>
      <point x="697" y="313"/>
      <point x="696" y="297" type="curve" smooth="yes"/>
      <point x="695" y="268"/>
      <point x="688" y="203"/>
      <point x="628" y="203" type="curve" smooth="yes"/>
      <point x="590" y="203"/>
      <point x="561" y="233"/>
      <point x="561" y="296" type="curve" smooth="yes"/>
      <point x="561" y="514" type="line" smooth="yes"/>
      <point x="561" y="527"/>
      <point x="552" y="536"/>
      <point x="539" y="536" type="curve" smooth="yes"/>
      <point x="522" y="536" type="line" smooth="yes"/>
      <point x="509" y="536"/>
      <point x="500" y="527"/>
      <point x="500" y="514" type="curve" smooth="yes"/>
      <point x="500" y="495" type="line"/>
      <point x="482" y="517"/>
      <point x="453" y="544"/>
      <point x="397" y="544" type="curve" smooth="yes"/>
      <point x="299" y="544"/>
      <point x="233" y="471"/>
      <point x="233" y="339" type="curve" smooth="yes"/>
      <point x="233" y="207"/>
      <point x="298" y="135"/>
      <point x="397" y="135" type="curve" smooth="yes"/>
      <point x="473" y="135"/>
      <point x="506" y="177"/>
      <point x="522" y="204" type="curve"/>
      <point x="531" y="190"/>
      <point x="562" y="145"/>
      <point x="628" y="145" type="curve" smooth="yes"/>
      <point x="709" y="145"/>
      <point x="751" y="195"/>
    </contour>
    <contour>
      <point x="294" y="339" type="curve" smooth="yes"/>
      <point x="294" y="424"/>
      <point x="321" y="486"/>
      <point x="397" y="486" type="curve" smooth="yes"/>
      <point x="476" y="486"/>
      <point x="500" y="424"/>
      <point x="500" y="339" type="curve" smooth="yes"/>
      <point x="500" y="254"/>
      <point x="476" y="193"/>
      <point x="397" y="193" type="curve" smooth="yes"/>
      <point x="321" y="193"/>
      <point x="294" y="264"/>
    </contour>
  </outline>
</glyph>
<glyph name="braceright.cap" format="1">
  <advance width="362"/>
  <outline>
    <contour>
      <point x="174" y="194" type="curve" name="hr00" smooth="yes"/>
      <point x="174" y="15"/>
      <point x="170" y="-58"/>
      <point x="67" y="-59" type="curve" smooth="yes"/>
      <point x="62" y="-59" type="line" smooth="yes"/>
      <point x="49" y="-59"/>
      <point x="40" y="-68"/>
      <point x="40" y="-81" type="curve" smooth="yes"/>
      <point x="40" y="-95" type="line" smooth="yes"/>
      <point x="40" y="-108"/>
      <point x="49" y="-117"/>
      <point x="62" y="-117" type="curve" smooth="yes"/>
      <point x="67" y="-117" type="line" smooth="yes"/>
      <point x="224" y="-117"/>
      <point x="235" y="-10"/>
      <point x="235" y="173" type="curve" smooth="yes"/>
      <point x="235" y="252"/>
      <point x="255" y="281"/>
      <point x="296" y="308" type="curve" smooth="yes"/>
      <point x="314" y="320"/>
      <point x="320" y="329"/>
      <point x="320" y="345" type="curve" smooth="yes"/>
      <point x="320" y="357" type="line" smooth="yes"/>
      <point x="320" y="373"/>
      <point x="314" y="382"/>
      <point x="296" y="394" type="curve" smooth="yes"/>
      <point x="255" y="421"/>
      <point x="235" y="450"/>
      <point x="235" y="529" type="curve" smooth="yes"/>
      <point x="235" y="712"/>
      <point x="224" y="818"/>
      <point x="67" y="818" type="curve" smooth="yes"/>
      <point x="62" y="818" type="line" smooth="yes"/>
      <point x="49" y="818"/>
      <point x="40" y="809"/>
      <point x="40" y="796" type="curve" smooth="yes"/>
      <point x="40" y="782" type="line" smooth="yes"/>
      <point x="40" y="769"/>
      <point x="49" y="760"/>
      <point x="62" y="760" type="curve" smooth="yes"/>
      <point x="67" y="760" type="line" smooth="yes"/>
      <point x="170" y="759"/>
      <point x="174" y="687"/>
      <point x="174" y="508" type="curve" smooth="yes"/>
      <point x="174" y="430"/>
      <point x="197" y="382"/>
      <point x="249" y="351" type="curve"/>
      <point x="197" y="320"/>
      <point x="174" y="272"/>
    </contour>
  </outline>
</glyph>
<glyph name="eight.otlf" format="1">
  <advance width="600"/>
  <outline>
    <contour>
      <point x="51" y="197" type="curve" smooth="yes"/>
      <point x="51" y="63"/>
      <point x="163" y="-10"/>
      <point x="300" y="-10" type="curve" smooth="yes"/>
      <point x="437" y="-10"/>
      <point x="549" y="63"/>
      <point x="549" y="197" type="curve" smooth="yes"/>
      <point x="549" y="282"/>
      <point x="504" y="342"/>
      <point x="436" y="374" type="curve"/>
      <point x="489" y="404"/>
      <point x="524" y="455"/>
      <point x="524" y="526" type="curve" name="hr01" smooth="yes"/>
      <point x="524" y="647"/>
      <point x="424" y="710"/>
      <point x="300" y="710" type="curve" smooth="yes"/>
      <point x="176" y="710"/>
      <point x="76" y="647"/>
      <point x="76" y="526" type="curve" smooth="yes"/>
      <point x="76" y="455"/>
      <point x="110" y="404"/>
      <point x="164" y="374" type="curve"/>
      <point x="96" y="342"/>
      <point x="51" y="282"/>
    </contour>
    <contour>
      <point x="114" y="197" type="curve" smooth="yes"/>
      <point x="114" y="288"/>
      <point x="197" y="343"/>
      <point x="300" y="343" type="curve" smooth="yes"/>
      <point x="403" y="343"/>
      <point x="486" y="288"/>
      <point x="486" y="197" type="curve" smooth="yes"/>
      <point x="486" y="106"/>
      <point x="403" y="50"/>
      <point x="300" y="50" type="curve" smooth="yes"/>
      <point x="197" y="50"/>
      <point x="114" y="106"/>
    </contour>
    <contour>
      <point x="139" y="526" type="curve" name="hr03" smooth="yes"/>
      <point x="139" y="604"/>
      <point x="211" y="650"/>
      <point x="300" y="650" type="curve" smooth="yes"/>
      <point x="389" y="650"/>
      <point x="461" y="604"/>
      <point x="461" y="526" type="curve" smooth="yes"/>
      <point x="461" y="450"/>
      <point x="386" y="405"/>
      <point x="300" y="403" type="curve"/>
      <point x="211" y="403"/>
      <point x="139" y="448"/>
    </contour>
  </outline>
</glyph>
<glyph name="f_f" format="1">
  <advance width="642"/>
  <outline>
    <contour>
      <point x="191" y="462" type="line"/>
      <point x="412" y="462" type="line"/>
      <point x="412" y="22" type="line"/>
      <point x="412" y="9"/>
      <point x="421" y="0"/>
      <point x="434" y="0" type="curve"/>
      <point x="451" y="0" type="line"/>
      <point x="464" y="0"/>
      <point x="473" y="9"/>
      <point x="473" y="22" type="curve"/>
      <point x="473" y="462" type="line"/>
      <point x="605" y="462" type="line"/>
      <point x="618" y="462"/>
      <point x="627" y="471"/>
      <point x="627" y="484" type="curve" name="hr01"/>
      <point x="627" y="498" type="line"/>
      <point x="627" y="511"/>
      <point x="618" y="520"/>
      <point x="605" y="520" type="curve"/>
      <point x="473" y="520" type="line" name="hr02"/>
      <point x="473" y="572" type="line"/>
      <point x="473" y="643"/>
      <point x="492" y="682"/>
      <point x="563" y="682" type="curve"/>
      <point x="615" y="682" type="line"/>
      <point x="628" y="682"/>
      <point x="637" y="691"/>
      <point x="637" y="704" type="curve"/>
      <point x="637" y="718" type="line"/>
      <point x="637" y="731"/>
      <point x="628" y="740"/>
      <point x="615" y="740" type="curve"/>
      <point x="563" y="740" type="line"/>
      <point x="441" y="740"/>
      <point x="412" y="666"/>
      <point x="412" y="577" type="curve"/>
      <point x="412" y="520" type="line"/>
      <point x="191" y="520" type="line"/>
      <point x="191" y="572" type="line"/>
      <point x="191" y="643"/>
      <point x="210" y="682"/>
      <point x="281" y="682" type="curve"/>
      <point x="333" y="682" type="line"/>
      <point x="346" y="682"/>
      <point x="355" y="691"/>
      <point x="355" y="704" type="curve"/>
      <point x="355" y="718" type="line"/>
      <point x="355" y="731"/>
      <point x="346" y="740"/>
      <point x="333" y="740" type="curve"/>
      <point x="281" y="740" type="line"/>
      <point x="159" y="740"/>
      <point x="130" y="666"/>
      <point x="130" y="577" type="curve"/>
      <point x="130" y="520" type="line"/>
      <point x="41" y="520" type="line"/>
      <point x="28" y="520"/>
      <point x="19" y="511"/>
      <point x="19" y="498" type="curve"/>
      <point x="19" y="484" type="line"/>
      <point x="19" y="471"/>
      <point x="28" y="462"/>
      <point x="41" y="462" type="curve"/>
      <point x="130" y="462" type="line"/>
      <point x="130" y="22" type="line"/>
      <point x="130" y="9"/>
      <point x="139" y="0"/>
      <point x="152" y="0" type="curve"/>
      <point x="169" y="0" type="line"/>
      <point x="182" y="0"/>
      <point x="191" y="9"/>
      <point x="191" y="22" type="curve"/>
    </contour>
  </outline>
</glyph>
<glyph name="f_f_i" format="1">
  <advance width="777"/>
  <outline>
    <contour>
      <point x="696" y="498" type="line" name="hr00" smooth="yes"/>
      <point x="696" y="511"/>
      <point x="687" y="520"/>
      <point x="674" y="520" type="curve" smooth="yes"/>
      <point x="473" y="520" type="line"/>
      <point x="473" y="572" type="line" smooth="yes"/>
      <point x="473" y="643"/>
      <point x="492" y="682"/>
      <point x="563" y="682" type="curve" smooth="yes"/>
      <point x="674" y="682" type="line" smooth="yes"/>
      <point x="687" y="682"/>
      <point x="696" y="691"/>
      <point x="696" y="704" type="curve" smooth="yes"/>
      <point x="696" y="718" type="line" smooth="yes"/>
      <point x="696" y="731"/>
      <point x="687" y="740"/>
      <point x="674" y="740" type="curve" smooth="yes"/>
      <point x="563" y="740" type="line" smooth="yes"/>
      <point x="441" y="740"/>
      <point x="412" y="666"/>
      <point x="412" y="577" type="curve" smooth="yes"/>
      <point x="412" y="520" type="line"/>
      <point x="191" y="520" type="line"/>
      <point x="191" y="572" type="line" smooth="yes"/>
      <point x="191" y="643"/>
      <point x="210" y="682"/>
      <point x="281" y="682" type="curve" smooth="yes"/>
      <point x="333" y="682" type="line" smooth="yes"/>
      <point x="346" y="682"/>
      <point x="355" y="691"/>
      <point x="355" y="704" type="curve" smooth="yes"/>
      <point x="355" y="718" type="line" smooth="yes"/>
      <point x="355" y="731"/>
      <point x="346" y="740"/>
      <point x="333" y="740" type="curve" smooth="yes"/>
      <point x="281" y="740" type="line" smooth="yes"/>
      <point x="159" y="740"/>
      <point x="130" y="666"/>
      <point x="130" y="577" type="curve" smooth="yes"/>
      <point x="130" y="520" type="line"/>
      <point x="41" y="520" type="line" smooth="yes"/>
      <point x="28" y="520"/>
      <point x="19" y="511"/>
      <point x="19" y="498" type="curve" smooth="yes"/>
      <point x="19" y="484" type="line" smooth="yes"/>
      <point x="19" y="471"/>
      <point x="28" y="462"/>
      <point x="41" y="462" type="curve" smooth="yes"/>
      <point x="130" y="462" type="line"/>
      <point x="130" y="22" type="line" smooth="yes"/>
      <point x="130" y="9"/>
      <point x="139" y="0"/>
      <point x="152" y="0" type="curve" smooth="yes"/>
      <point x="169" y="0" type="line" smooth="yes"/>
      <point x="182" y="0"/>
      <point x="191" y="9"/>
      <point x="191" y="22" type="curve" smooth="yes"/>
      <point x="191" y="462" type="line"/>
      <point x="412" y="462" type="line"/>
      <point x="412" y="22" type="line" smooth="yes"/>
      <point x="412" y="9"/>
      <point x="421" y="0"/>
      <point x="434" y="0" type="curve" smooth="yes"/>
      <point x="451" y="0" type="line" smooth="yes"/>
      <point x="464" y="0"/>
      <point x="473" y="9"/>
      <point x="473" y="22" type="curve" smooth="yes"/>
      <point x="473" y="462" type="line"/>
      <point x="635" y="462" type="line"/>
      <point x="635" y="22" type="line" smooth="yes"/>
      <point x="635" y="9"/>
      <point x="644" y="0"/>
      <point x="657" y="0" type="curve" smooth="yes"/>
      <point x="674" y="0" type="line" smooth="yes"/>
      <point x="687" y="0"/>
      <point x="696" y="9"/>
      <point x="696" y="22" type="curve" smooth="yes"/>
    </contour>
  </outline>
</glyph>
<glyph name="f_f_l" format="1">
  <advance width="837"/>
  <outline>
    <contour>
      <point x="191" y="462" type="line" name="hr00"/>
      <point x="412" y="462" type="line"/>
      <point x="412" y="22" type="line" smooth="yes"/>
      <point x="412" y="9"/>
      <point x="421" y="0"/>
      <point x="434" y="0" type="curve" smooth="yes"/>
      <point x="451" y="0" type="line" smooth="yes"/>
      <point x="464" y="0"/>
      <point x="473" y="9"/>
      <point x="473" y="22" type="curve" smooth="yes"/>
      <point x="473" y="462" type="line"/>
      <point x="694" y="462" type="line"/>
      <point x="694" y="22" type="line" smooth="yes"/>
      <point x="694" y="9"/>
      <point x="703" y="0"/>
      <point x="716" y="0" type="curve" smooth="yes"/>
      <point x="733" y="0" type="line" smooth="yes"/>
      <point x="746" y="0"/>
      <point x="755" y="9"/>
      <point x="755" y="22" type="curve" smooth="yes"/>
      <point x="755" y="718" type="line" smooth="yes"/>
      <point x="755" y="731"/>
      <point x="746" y="740"/>
      <point x="733" y="740" type="curve" smooth="yes"/>
      <point x="716" y="740" type="line" smooth="yes"/>
      <point x="703" y="740"/>
      <point x="694" y="731"/>
      <point x="694" y="718" type="curve" smooth="yes"/>
      <point x="694" y="520" type="line"/>
      <point x="473" y="520" type="line"/>
      <point x="473" y="572" type="line" smooth="yes"/>
      <point x="473" y="643"/>
      <point x="492" y="682"/>
      <point x="563" y="682" type="curve" smooth="yes"/>
      <point x="615" y="682" type="line" smooth="yes"/>
      <point x="628" y="682"/>
      <point x="637" y="691"/>
      <point x="637" y="704" type="curve" smooth="yes"/>
      <point x="637" y="718" type="line" smooth="yes"/>
      <point x="637" y="731"/>
      <point x="628" y="740"/>
      <point x="615" y="740" type="curve" smooth="yes"/>
      <point x="563" y="740" type="line" smooth="yes"/>
      <point x="441" y="740"/>
      <point x="412" y="666"/>
      <point x="412" y="577" type="curve" smooth="yes"/>
      <point x="412" y="520" type="line"/>
      <point x="191" y="520" type="line"/>
      <point x="191" y="572" type="line" smooth="yes"/>
      <point x="191" y="643"/>
      <point x="210" y="682"/>
      <point x="281" y="682" type="curve" smooth="yes"/>
      <point x="333" y="682" type="line" smooth="yes"/>
      <point x="346" y="682"/>
      <point x="355" y="691"/>
      <point x="355" y="704" type="curve" smooth="yes"/>
      <point x="355" y="718" type="line" smooth="yes"/>
      <point x="355" y="731"/>
      <point x="346" y="740"/>
      <point x="333" y="740" type="curve" smooth="yes"/>
      <point x="281" y="740" type="line" smooth="yes"/>
      <point x="159" y="740"/>
      <point x="130" y="666"/>
      <point x="130" y="577" type="curve" smooth="yes"/>
      <point x="130" y="520" type="line"/>
      <point x="41" y="520" type="line" smooth="yes"/>
      <point x="28" y="520"/>
      <point x="19" y="511"/>
      <point x="19" y="498" type="curve" smooth="yes"/>
      <point x="19" y="484" type="line" smooth="yes"/>
      <point x="19" y="471"/>
      <point x="28" y="462"/>
      <point x="41" y="462" type="curve" smooth="yes"/>
      <point x="130" y="462" type="line"/>
      <point x="130" y="22" type="line" smooth="yes"/>
      <point x="130" y="9"/>
      <point x="139" y="0"/>
      <point x="152" y="0" type="curve" smooth="yes"/>
      <point x="169" y="0" type="line" smooth="yes"/>
      <point x="182" y="0"/>
      <point x="191" y="9"/>
      <point x="191" y="22" type="curve" smooth="yes"/>
    </contour>
  </outline>
</glyph>
<glyph name="four.otlf" format="1">
  <advance width="600"/>
  <outline>
    <contour>
      <point x="35" y="202" type="line" name="hr00"/>
      <point x="35" y="189"/>
      <point x="44" y="180"/>
      <point x="57" y="180" type="curve" smooth="yes"/>
      <point x="387" y="180" type="line"/>
      <point x="387" y="22" type="line" smooth="yes"/>
      <point x="387" y="9"/>
      <point x="396" y="0"/>
      <point x="409" y="0" type="curve" smooth="yes"/>
      <point x="428" y="0" type="line" smooth="yes"/>
      <point x="441" y="0"/>
      <point x="450" y="9"/>
      <point x="450" y="22" type="curve" smooth="yes"/>
      <point x="450" y="180" type="line"/>
      <point x="541" y="180" type="line" smooth="yes"/>
      <point x="554" y="180"/>
      <point x="563" y="189"/>
      <point x="563" y="202" type="curve" smooth="yes"/>
      <point x="563" y="218" type="line" smooth="yes"/>
      <point x="563" y="231"/>
      <point x="554" y="240"/>
      <point x="541" y="240" type="curve" smooth="yes"/>
      <point x="450" y="240" type="line"/>
      <point x="450" y="678" type="line" smooth="yes"/>
      <point x="450" y="691"/>
      <point x="441" y="700"/>
      <point x="428" y="700" type="curve" smooth="yes"/>
      <point x="387" y="700" type="line" smooth="yes"/>
      <point x="371" y="700"/>
      <point x="357" y="693"/>
      <point x="350" y="683" type="curve" smooth="yes"/>
      <point x="46" y="248" type="line" smooth="yes"/>
      <point x="36" y="234"/>
      <point x="35" y="220"/>
      <point x="35" y="218" type="curve" smooth="yes"/>
    </contour>
    <contour>
      <point x="114" y="240" type="line"/>
      <point x="387" y="629" type="line"/>
      <point x="387" y="240" type="line"/>
    </contour>
  </outline>
</glyph>
<glyph name="guilsinglright.cap" format="1">
  <advance width="366"/>
  <outline>
    <contour>
      <point x="251" y="329" type="line" name="hr00"/>
      <point x="82" y="165" type="line" smooth="yes"/>
      <point x="69" y="152"/>
      <point x="64" y="145"/>
      <point x="64" y="129" type="curve" smooth="yes"/>
      <point x="64" y="112" type="line" smooth="yes"/>
      <point x="64" y="100"/>
      <point x="72" y="92"/>
      <point x="84" y="92" type="curve" smooth="yes"/>
      <point x="92" y="92"/>
      <point x="100" y="97"/>
      <point x="108" y="104" type="curve" smooth="yes"/>
      <point x="296" y="286" type="line" smooth="yes"/>
      <point x="309" y="299"/>
      <point x="312" y="310"/>
      <point x="313" y="321" type="curve"/>
      <point x="313" y="337" type="line"/>
      <point x="312" y="348"/>
      <point x="309" y="359"/>
      <point x="296" y="372" type="curve" smooth="yes"/>
      <point x="108" y="554" type="line" smooth="yes"/>
      <point x="100" y="561"/>
      <point x="92" y="566"/>
      <point x="84" y="566" type="curve" smooth="yes"/>
      <point x="72" y="566"/>
      <point x="64" y="558"/>
      <point x="64" y="546" type="curve" smooth="yes"/>
      <point x="64" y="529" type="line" smooth="yes"/>
      <point x="64" y="513"/>
      <point x="69" y="506"/>
      <point x="82" y="493" type="curve" smooth="yes"/>
    </contour>
  </outline>
</glyph>
<glyph name="nine.otlf" format="1">
  <advance width="600"/>
  <outline>
    <contour>
      <point x="531" y="479" type="curve" name="hr00" smooth="yes"/>
      <point x="531" y="590"/>
      <point x="453" y="710"/>
      <point x="293" y="710" type="curve" smooth="yes"/>
      <point x="133" y="710"/>
      <point x="56" y="590"/>
      <point x="56" y="479" type="curve" smooth="yes"/>
      <point x="56" y="368"/>
      <point x="133" y="249"/>
      <point x="293" y="249" type="curve" smooth="yes"/>
      <point x="315" y="249"/>
      <point x="339" y="252"/>
      <point x="358" y="257" type="curve"/>
      <point x="200" y="35" type="line" smooth="yes"/>
      <point x="198" y="32"/>
      <point x="195" y="28"/>
      <point x="195" y="22" type="curve" smooth="yes"/>
      <point x="195" y="10"/>
      <point x="203" y="0"/>
      <point x="215" y="0" type="curve" smooth="yes"/>
      <point x="235" y="0" type="line" smooth="yes"/>
      <point x="253" y="0"/>
      <point x="260" y="13"/>
      <point x="266" y="20" type="curve"/>
      <point x="472" y="311" type="line" smooth="yes"/>
      <point x="495" y="344"/>
      <point x="531" y="400"/>
    </contour>
    <contour>
      <point x="119" y="479" type="curve" smooth="yes"/>
      <point x="119" y="584"/>
      <point x="199" y="650"/>
      <point x="293" y="650" type="curve" smooth="yes"/>
      <point x="387" y="650"/>
      <point x="468" y="584"/>
      <point x="468" y="479" type="curve" smooth="yes"/>
      <point x="468" y="375"/>
      <point x="387" y="309"/>
      <point x="293" y="309" type="curve" smooth="yes"/>
      <point x="199" y="309"/>
      <point x="119" y="375"/>
    </contour>
  </outline>
</glyph>
<glyph name="six.otlf" format="1">
  <advance width="600"/>
  <outline>
    <contour>
      <point x="64" y="226" type="curve" name="hr00" smooth="yes"/>
      <point x="64" y="105"/>
      <point x="147" y="-10"/>
      <point x="307" y="-10" type="curve" smooth="yes"/>
      <point x="467" y="-10"/>
      <point x="550" y="105"/>
      <point x="550" y="226" type="curve" smooth="yes"/>
      <point x="550" y="347"/>
      <point x="467" y="461"/>
      <point x="307" y="461" type="curve" smooth="yes"/>
      <point x="285" y="461"/>
      <point x="258" y="458"/>
      <point x="239" y="453" type="curve"/>
      <point x="389" y="665" type="line" smooth="yes"/>
      <point x="391" y="668"/>
      <point x="394" y="672"/>
      <point x="394" y="678" type="curve" smooth="yes"/>
      <point x="394" y="690"/>
      <point x="386" y="700"/>
      <point x="374" y="700" type="curve" smooth="yes"/>
      <point x="355" y="700" type="line" smooth="yes"/>
      <point x="337" y="700"/>
      <point x="330" y="687"/>
      <point x="324" y="680" type="curve"/>
      <point x="127" y="403" type="line" smooth="yes"/>
      <point x="104" y="370"/>
      <point x="64" y="304"/>
    </contour>
    <contour>
      <point x="487" y="226" type="curve" smooth="yes"/>
      <point x="487" y="111"/>
      <point x="401" y="50"/>
      <point x="307" y="50" type="curve" smooth="yes"/>
      <point x="213" y="50"/>
      <point x="127" y="111"/>
      <point x="127" y="226" type="curve" smooth="yes"/>
      <point x="127" y="340"/>
      <point x="213" y="401"/>
      <point x="307" y="401" type="curve" smooth="yes"/>
      <point x="401" y="401"/>
      <point x="487" y="340"/>
    </contour>
  </outline>
</glyph>
<glyph name="two.otlf" format="1">
  <advance width="600"/>
  <outline>
    <contour>
      <point x="103" y="483" type="curve" name="hr00"/>
      <point x="123" y="483" type="line" smooth="yes"/>
      <point x="131" y="483"/>
      <point x="144" y="490"/>
      <point x="146" y="506" type="curve" smooth="yes"/>
      <point x="157" y="592"/>
      <point x="210" y="650"/>
      <point x="301" y="650" type="curve" smooth="yes"/>
      <point x="396" y="650"/>
      <point x="449" y="596"/>
      <point x="449" y="507" type="curve" smooth="yes"/>
      <point x="449" y="445"/>
      <point x="431" y="407"/>
      <point x="356" y="338" type="curve" smooth="yes"/>
      <point x="97" y="79" type="line" smooth="yes"/>
      <point x="78" y="62"/>
      <point x="72" y="50"/>
      <point x="72" y="37" type="curve" smooth="yes"/>
      <point x="72" y="22" type="line" smooth="yes"/>
      <point x="72" y="9"/>
      <point x="81" y="0"/>
      <point x="94" y="0" type="curve" smooth="yes"/>
      <point x="504" y="0" type="line" smooth="yes"/>
      <point x="518" y="0"/>
      <point x="527" y="9"/>
      <point x="527" y="22" type="curve" smooth="yes"/>
      <point x="527" y="37" type="line" smooth="yes"/>
      <point x="527" y="51"/>
      <point x="518" y="60"/>
      <point x="504" y="60" type="curve" smooth="yes"/>
      <point x="169" y="60" type="line"/>
      <point x="403" y="298" type="line" smooth="yes"/>
      <point x="476" y="366"/>
      <point x="512" y="425"/>
      <point x="512" y="507" type="curve" smooth="yes"/>
      <point x="512" y="612"/>
      <point x="453" y="710"/>
      <point x="301" y="710" type="curve" smooth="yes"/>
      <point x="149" y="710"/>
      <point x="85" y="593"/>
      <point x="82" y="502" type="curve" smooth="yes"/>
      <point x="82" y="491"/>
      <point x="90" y="483"/>
    </contour>
  </outline>
</glyph>
